<svg xmlns="http://www.w3.org/2000/svg" width="60" height="63" viewBox="0 0 60 63">
  <g id="Vector_Smart_Object_copy" data-name="Vector Smart Object copy" transform="translate(-372 -5663)">
    <g id="Vector_Smart_Object_copy-2" data-name="Vector Smart Object copy" transform="translate(204.807 5504.86)">
      <g id="Сгруппировать_555" data-name="Сгруппировать 555">
        <g id="Сгруппировать_402" data-name="Сгруппировать 402">
          <g id="Сгруппировать_381" data-name="Сгруппировать 381">
            <g id="Сгруппировать_379" data-name="Сгруппировать 379">
              <path id="Контур_59431" data-name="Контур 59431" d="M196.115,190.31a18.094,18.094,0,0,1-5.065-.734,14.525,14.525,0,0,1-5.146-2.69,14.134,14.134,0,0,1-4.159-5.874,16.492,16.492,0,0,1-.914-5.131,42.427,42.427,0,0,1,.164-5.6,64.528,64.528,0,0,1,.9-6.411.621.621,0,1,1,1.217.253c-.023.111-2.251,11.2-.211,16.43a12.9,12.9,0,0,0,3.789,5.363,13.3,13.3,0,0,0,4.71,2.458,16.311,16.311,0,0,0,5.726.642.626.626,0,0,1,.132,1.245C197.215,190.267,196.8,190.31,196.115,190.31Z" fill="#fcf8f0"/>
            </g>
            <g id="Сгруппировать_380" data-name="Сгруппировать 380">
              <path id="Контур_59432" data-name="Контур 59432" d="M197.192,190.266a.615.615,0,0,1-.366-.12.629.629,0,0,1-.136-.874,16.733,16.733,0,0,0,2.322-5.361,13.515,13.515,0,0,0,.229-5.324,12.952,12.952,0,0,0-2.709-5.963c-3.478-4.4-14.117-8-14.224-8.031a.627.627,0,0,1-.394-.791.62.62,0,0,1,.785-.4,63.268,63.268,0,0,1,5.96,2.42,41.691,41.691,0,0,1,4.892,2.656,16.29,16.29,0,0,1,3.952,3.363,14.187,14.187,0,0,1,2.968,6.567,14.789,14.789,0,0,1-.261,5.836,17.681,17.681,0,0,1-2.515,5.763A.619.619,0,0,1,197.192,190.266Z" fill="#fcf8f0"/>
            </g>
          </g>
          <g id="Сгруппировать_391" data-name="Сгруппировать 391">
            <g id="Сгруппировать_384" data-name="Сгруппировать 384">
              <g id="Сгруппировать_383" data-name="Сгруппировать 383">
                <g id="Сгруппировать_382" data-name="Сгруппировать 382">
                  <path id="Контур_59433" data-name="Контур 59433" d="M191.252,179.572a.3.3,0,0,1-.261-.152c-.179-.312-1.958-3.014-9.346-1.962a.3.3,0,0,1-.084-.6c7.618-1.085,9.626,1.692,9.952,2.259a.3.3,0,0,1-.11.415A.3.3,0,0,1,191.252,179.572Z" fill="#fcf8f0"/>
                </g>
              </g>
            </g>
            <g id="Сгруппировать_387" data-name="Сгруппировать 387">
              <g id="Сгруппировать_386" data-name="Сгруппировать 386">
                <g id="Сгруппировать_385" data-name="Сгруппировать 385">
                  <path id="Контур_59434" data-name="Контур 59434" d="M188.132,174.127a.3.3,0,0,1-.261-.152c-.1-.171-1.111-1.645-6.388-.636a.3.3,0,0,1-.112-.6,12.278,12.278,0,0,1,5.423-.1,2.54,2.54,0,0,1,1.6,1.033.3.3,0,0,1-.11.415A.3.3,0,0,1,188.132,174.127Z" fill="#fcf8f0"/>
                </g>
              </g>
            </g>
            <g id="Сгруппировать_390" data-name="Сгруппировать 390">
              <g id="Сгруппировать_389" data-name="Сгруппировать 389">
                <g id="Сгруппировать_388" data-name="Сгруппировать 388">
                  <path id="Контур_59435" data-name="Контур 59435" d="M185.374,169.313a.3.3,0,0,1-.261-.152c0-.007-.443-.711-3.29-.2a.3.3,0,0,1-.105-.6c2.974-.533,3.73.169,3.917.5a.3.3,0,0,1-.11.415A.3.3,0,0,1,185.374,169.313Z" fill="#fcf8f0"/>
                </g>
              </g>
            </g>
          </g>
          <g id="Сгруппировать_401" data-name="Сгруппировать 401">
            <g id="Сгруппировать_394" data-name="Сгруппировать 394">
              <g id="Сгруппировать_393" data-name="Сгруппировать 393">
                <g id="Сгруппировать_392" data-name="Сгруппировать 392">
                  <path id="Контур_59436" data-name="Контур 59436" d="M191.252,179.572a.3.3,0,0,1-.261-.152c-.325-.568-1.707-3.709,3.034-9.815a.3.3,0,0,1,.423-.052.305.305,0,0,1,.052.426c-4.6,5.922-3.166,8.826-2.987,9.138a.3.3,0,0,1-.11.415A.3.3,0,0,1,191.252,179.572Z" fill="#fcf8f0"/>
                </g>
              </g>
            </g>
            <g id="Сгруппировать_397" data-name="Сгруппировать 397">
              <g id="Сгруппировать_396" data-name="Сгруппировать 396">
                <g id="Сгруппировать_395" data-name="Сгруппировать 395">
                  <path id="Контур_59437" data-name="Контур 59437" d="M188.132,174.127a.3.3,0,0,1-.261-.152,2.577,2.577,0,0,1-.088-1.912,12.487,12.487,0,0,1,2.8-4.681.3.3,0,0,1,.425-.032.305.305,0,0,1,.032.428c-3.506,4.1-2.746,5.722-2.648,5.893a.3.3,0,0,1-.11.415A.3.3,0,0,1,188.132,174.127Z" fill="#fcf8f0"/>
                </g>
              </g>
            </g>
            <g id="Сгруппировать_400" data-name="Сгруппировать 400">
              <g id="Сгруппировать_399" data-name="Сгруппировать 399">
                <g id="Сгруппировать_398" data-name="Сгруппировать 398">
                  <path id="Контур_59438" data-name="Контур 59438" d="M185.374,169.313a.3.3,0,0,1-.261-.152c-.187-.326-.412-1.337,1.533-3.666a.3.3,0,0,1,.424-.037.305.305,0,0,1,.037.428c-1.861,2.229-1.476,2.965-1.472,2.972a.3.3,0,0,1-.11.415A.3.3,0,0,1,185.374,169.313Z" fill="#fcf8f0"/>
                </g>
              </g>
            </g>
          </g>
          <path id="Контур_59439" data-name="Контур 59439" d="M197.193,189.944a.3.3,0,0,1-.261-.152l-14.689-25.641a.3.3,0,0,1,.11-.415.3.3,0,0,1,.411.111l14.689,25.641a.3.3,0,0,1-.11.415A.3.3,0,0,1,197.193,189.944Z" fill="#fcf8f0"/>
        </g>
        <g id="Сгруппировать_426" data-name="Сгруппировать 426">
          <g id="Сгруппировать_405" data-name="Сгруппировать 405">
            <g id="Сгруппировать_403" data-name="Сгруппировать 403">
              <path id="Контур_59440" data-name="Контур 59440" d="M184.369,198.988a15.433,15.433,0,0,1-2.314-.178c-2.488-.377-5.716-1.962-9.595-4.71a63.655,63.655,0,0,1-5.059-3.992.629.629,0,0,1-.051-.884.618.618,0,0,1,.877-.052c.084.076,8.495,7.563,14.013,8.4a12.713,12.713,0,0,0,6.479-.617,13.3,13.3,0,0,0,4.46-2.861,16.672,16.672,0,0,0,3.446-4.707.62.62,0,0,1,.82-.318.628.628,0,0,1,.316.825,17.621,17.621,0,0,1-3.694,5.076,14.551,14.551,0,0,1-4.884,3.146A13.434,13.434,0,0,1,184.369,198.988Z" fill="#fcf8f0"/>
            </g>
            <g id="Сгруппировать_404" data-name="Сгруппировать 404">
              <path id="Контур_59441" data-name="Контур 59441" d="M197.193,190.266a.621.621,0,0,1-.568-.372,16.676,16.676,0,0,0-3.446-4.707,13.3,13.3,0,0,0-4.46-2.861,12.712,12.712,0,0,0-6.479-.617c-5.522.837-13.929,8.323-14.013,8.4a.618.618,0,0,1-.877-.052.629.629,0,0,1,.051-.884,63.647,63.647,0,0,1,5.059-3.992c3.878-2.748,7.106-4.333,9.595-4.71a13.925,13.925,0,0,1,7.127.693,14.55,14.55,0,0,1,4.884,3.146,17.621,17.621,0,0,1,3.694,5.076.628.628,0,0,1-.316.826A.615.615,0,0,1,197.193,190.266Z" fill="#fcf8f0"/>
            </g>
          </g>
          <g id="Сгруппировать_415" data-name="Сгруппировать 415">
            <g id="Сгруппировать_408" data-name="Сгруппировать 408">
              <g id="Сгруппировать_407" data-name="Сгруппировать 407">
                <g id="Сгруппировать_406" data-name="Сгруппировать 406">
                  <path id="Контур_59442" data-name="Контур 59442" d="M178.672,197.31a.3.3,0,0,1-.112-.022.3.3,0,0,1-.167-.4c2.877-7.192,6.267-7.556,6.917-7.556a.3.3,0,0,1,0,.607c-.357,0-3.569.2-6.359,7.176A.3.3,0,0,1,178.672,197.31Z" fill="#fcf8f0"/>
                </g>
              </g>
            </g>
            <g id="Сгруппировать_411" data-name="Сгруппировать 411">
              <g id="Сгруппировать_410" data-name="Сгруппировать 410">
                <g id="Сгруппировать_409" data-name="Сгруппировать 409">
                  <path id="Контур_59443" data-name="Контур 59443" d="M175.045,195.4a.3.3,0,0,1-.1-.017.3.3,0,0,1-.185-.387,12.491,12.491,0,0,1,2.622-4.785,2.531,2.531,0,0,1,1.687-.879.3.3,0,0,1,0,.607c-.2,0-1.97.148-3.741,5.258A.3.3,0,0,1,175.045,195.4Z" fill="#fcf8f0"/>
                </g>
              </g>
            </g>
            <g id="Сгруппировать_414" data-name="Сгруппировать 414">
              <g id="Сгруппировать_413" data-name="Сгруппировать 413">
                <g id="Сгруппировать_412" data-name="Сгруппировать 412">
                  <path id="Контур_59444" data-name="Контур 59444" d="M171.454,192.915a.3.3,0,0,1-.1-.018.3.3,0,0,1-.181-.389c1.029-2.862,2.01-3.171,2.384-3.171a.3.3,0,0,1,0,.607c-.008,0-.833.032-1.818,2.771A.3.3,0,0,1,171.454,192.915Z" fill="#fcf8f0"/>
                </g>
              </g>
            </g>
          </g>
          <g id="Сгруппировать_425" data-name="Сгруппировать 425">
            <g id="Сгруппировать_418" data-name="Сгруппировать 418">
              <g id="Сгруппировать_417" data-name="Сгруппировать 417">
                <g id="Сгруппировать_416" data-name="Сгруппировать 416">
                  <path id="Контур_59445" data-name="Контур 59445" d="M185.31,189.944c-.65,0-4.041-.364-6.917-7.556a.3.3,0,0,1,.167-.4.3.3,0,0,1,.392.168c2.79,6.975,6,7.176,6.359,7.176a.3.3,0,0,1,0,.607Z" fill="#fcf8f0"/>
                </g>
              </g>
            </g>
            <g id="Сгруппировать_421" data-name="Сгруппировать 421">
              <g id="Сгруппировать_420" data-name="Сгруппировать 420">
                <g id="Сгруппировать_419" data-name="Сгруппировать 419">
                  <path id="Контур_59446" data-name="Контур 59446" d="M179.07,189.944a2.531,2.531,0,0,1-1.687-.879,12.49,12.49,0,0,1-2.622-4.785.3.3,0,0,1,.185-.387.3.3,0,0,1,.384.186c1.771,5.11,3.544,5.258,3.741,5.258a.3.3,0,0,1,0,.607Z" fill="#fcf8f0"/>
                </g>
              </g>
            </g>
            <g id="Сгруппировать_424" data-name="Сгруппировать 424">
              <g id="Сгруппировать_423" data-name="Сгруппировать 423">
                <g id="Сгруппировать_422" data-name="Сгруппировать 422">
                  <path id="Контур_59447" data-name="Контур 59447" d="M173.555,189.944c-.374,0-1.355-.309-2.384-3.171a.3.3,0,0,1,.181-.389.3.3,0,0,1,.386.182c.985,2.739,1.81,2.771,1.818,2.771a.3.3,0,0,1,0,.607Z" fill="#fcf8f0"/>
                </g>
              </g>
            </g>
          </g>
          <path id="Контур_59448" data-name="Контур 59448" d="M197.193,189.944H167.814a.3.3,0,0,1,0-.607h29.379a.3.3,0,0,1,0,.607Z" fill="#fcf8f0"/>
        </g>
        <g id="Сгруппировать_450" data-name="Сгруппировать 450">
          <g id="Сгруппировать_429" data-name="Сгруппировать 429">
            <g id="Сгруппировать_427" data-name="Сгруппировать 427">
              <path id="Контур_59449" data-name="Контур 59449" d="M182.5,215.585a.3.3,0,0,1-.095-.592c.108-.036,10.836-3.663,14.373-8.136a13.269,13.269,0,0,0,2.777-6.125,13.848,13.848,0,0,0-.241-5.46,17.041,17.041,0,0,0-2.369-5.454.305.305,0,0,1,.066-.424.3.3,0,0,1,.421.066,17.321,17.321,0,0,1,2.463,5.648,14.468,14.468,0,0,1,.257,5.708,13.869,13.869,0,0,1-2.9,6.418c-1.537,1.944-4.474,3.938-8.729,5.928a62.919,62.919,0,0,1-5.926,2.406A.3.3,0,0,1,182.5,215.585Z" fill="#fcf8f0"/>
            </g>
            <g id="Сгруппировать_428" data-name="Сгруппировать 428">
              <path id="Контур_59450" data-name="Контур 59450" d="M182.5,215.908a.623.623,0,0,1-.608-.5,64.526,64.526,0,0,1-.9-6.411,42.428,42.428,0,0,1-.164-5.6,16.493,16.493,0,0,1,.914-5.131,14.133,14.133,0,0,1,4.159-5.874,14.526,14.526,0,0,1,5.146-2.69,17.354,17.354,0,0,1,6.209-.686.626.626,0,0,1-.132,1.245,16.42,16.42,0,0,0-5.768.654,13.275,13.275,0,0,0-4.689,2.462,12.9,12.9,0,0,0-3.769,5.346c-2.04,5.234.188,16.318.211,16.43a.626.626,0,0,1-.483.739A.617.617,0,0,1,182.5,215.908Z" fill="#fcf8f0"/>
            </g>
          </g>
          <g id="Сгруппировать_439" data-name="Сгруппировать 439">
            <g id="Сгруппировать_432" data-name="Сгруппировать 432">
              <g id="Сгруппировать_431" data-name="Сгруппировать 431">
                <g id="Сгруппировать_430" data-name="Сгруппировать 430">
                  <path id="Контур_59451" data-name="Контур 59451" d="M194.262,209.792a.3.3,0,0,1-.237-.117c-4.742-6.107-3.36-9.248-3.034-9.815a.3.3,0,0,1,.411-.111.3.3,0,0,1,.11.415c-.179.312-1.611,3.216,2.987,9.138a.305.305,0,0,1-.052.426A.3.3,0,0,1,194.262,209.792Z" fill="#fcf8f0"/>
                </g>
              </g>
            </g>
            <g id="Сгруппировать_435" data-name="Сгруппировать 435">
              <g id="Сгруппировать_434" data-name="Сгруппировать 434">
                <g id="Сгруппировать_433" data-name="Сгруппировать 433">
                  <path id="Контур_59452" data-name="Контур 59452" d="M190.812,212a.3.3,0,0,1-.228-.105,12.486,12.486,0,0,1-2.8-4.681,2.577,2.577,0,0,1,.088-1.912.3.3,0,0,1,.411-.111.3.3,0,0,1,.11.415c-.1.171-.858,1.793,2.648,5.894a.305.305,0,0,1-.032.428A.3.3,0,0,1,190.812,212Z" fill="#fcf8f0"/>
                </g>
              </g>
            </g>
            <g id="Сгруппировать_438" data-name="Сгруппировать 438">
              <g id="Сгруппировать_437" data-name="Сгруппировать 437">
                <g id="Сгруппировать_436" data-name="Сгруппировать 436">
                  <path id="Контур_59453" data-name="Контур 59453" d="M186.877,213.894a.3.3,0,0,1-.231-.108c-1.945-2.329-1.72-3.34-1.533-3.666a.3.3,0,0,1,.411-.111.3.3,0,0,1,.11.415c0,.007-.389.743,1.472,2.972a.305.305,0,0,1-.037.428A.3.3,0,0,1,186.877,213.894Z" fill="#fcf8f0"/>
                </g>
              </g>
            </g>
          </g>
          <g id="Сгруппировать_449" data-name="Сгруппировать 449">
            <g id="Сгруппировать_442" data-name="Сгруппировать 442">
              <g id="Сгруппировать_441" data-name="Сгруппировать 441">
                <g id="Сгруппировать_440" data-name="Сгруппировать 440">
                  <path id="Контур_59454" data-name="Контур 59454" d="M184.817,202.672a23.152,23.152,0,0,1-3.257-.249.3.3,0,0,1,.084-.6c7.388,1.052,9.167-1.65,9.346-1.962a.3.3,0,0,1,.411-.111.3.3,0,0,1,.11.415C191.239,200.64,189.781,202.672,184.817,202.672Z" fill="#fcf8f0"/>
                </g>
              </g>
            </g>
            <g id="Сгруппировать_445" data-name="Сгруппировать 445">
              <g id="Сгруппировать_444" data-name="Сгруппировать 444">
                <g id="Сгруппировать_443" data-name="Сгруппировать 443">
                  <path id="Контур_59455" data-name="Контур 59455" d="M184.691,206.9a17.942,17.942,0,0,1-3.321-.359.3.3,0,0,1,.112-.6c5.277,1.009,6.29-.465,6.388-.636a.3.3,0,0,1,.411-.111.3.3,0,0,1,.11.415,2.54,2.54,0,0,1-1.6,1.033A7.679,7.679,0,0,1,184.691,206.9Z" fill="#fcf8f0"/>
                </g>
              </g>
            </g>
            <g id="Сгруппировать_448" data-name="Сгруппировать 448">
              <g id="Сгруппировать_447" data-name="Сгруппировать 447">
                <g id="Сгруппировать_446" data-name="Сгруппировать 446">
                  <path id="Контур_59456" data-name="Контур 59456" d="M183.616,211.112a10.891,10.891,0,0,1-1.9-.193.3.3,0,0,1,.105-.6c2.847.51,3.286-.194,3.29-.2a.3.3,0,0,1,.411-.111.3.3,0,0,1,.11.415C185.5,210.664,185.046,211.112,183.616,211.112Z" fill="#fcf8f0"/>
                </g>
              </g>
            </g>
          </g>
          <path id="Контур_59457" data-name="Контур 59457" d="M182.5,215.585a.3.3,0,0,1-.15-.041.3.3,0,0,1-.11-.415l14.689-25.641a.3.3,0,0,1,.411-.111.3.3,0,0,1,.11.415l-14.689,25.641A.3.3,0,0,1,182.5,215.585Z" fill="#fcf8f0"/>
        </g>
        <g id="Сгруппировать_474" data-name="Сгруппировать 474">
          <g id="Сгруппировать_453" data-name="Сгруппировать 453">
            <g id="Сгруппировать_451" data-name="Сгруппировать 451">
              <path id="Контур_59458" data-name="Контур 59458" d="M211.883,215.908a.617.617,0,0,1-.126-.013.626.626,0,0,1-.483-.739c.023-.111,2.251-11.2.211-16.43a12.9,12.9,0,0,0-3.769-5.346,13.274,13.274,0,0,0-4.689-2.462,16.421,16.421,0,0,0-5.768-.654.626.626,0,0,1-.131-1.245,17.353,17.353,0,0,1,6.209.686,14.527,14.527,0,0,1,5.146,2.69,14.134,14.134,0,0,1,4.159,5.874,16.493,16.493,0,0,1,.914,5.131,42.428,42.428,0,0,1-.164,5.6,64.532,64.532,0,0,1-.9,6.411A.623.623,0,0,1,211.883,215.908Z" fill="#fcf8f0"/>
            </g>
            <g id="Сгруппировать_452" data-name="Сгруппировать 452">
              <path id="Контур_59459" data-name="Контур 59459" d="M211.882,215.908a.615.615,0,0,1-.2-.032,63.279,63.279,0,0,1-5.96-2.42,41.69,41.69,0,0,1-4.892-2.656,16.287,16.287,0,0,1-3.952-3.363,14.188,14.188,0,0,1-2.968-6.567,14.789,14.789,0,0,1,.261-5.836,17.681,17.681,0,0,1,2.515-5.763.618.618,0,0,1,.868-.137.629.629,0,0,1,.136.875,16.739,16.739,0,0,0-2.321,5.361,13.516,13.516,0,0,0-.229,5.324,12.952,12.952,0,0,0,2.709,5.963c3.478,4.4,14.117,8,14.224,8.031a.627.627,0,0,1-.2,1.22Z" fill="#fcf8f0"/>
            </g>
          </g>
          <g id="Сгруппировать_463" data-name="Сгруппировать 463">
            <g id="Сгруппировать_456" data-name="Сгруппировать 456">
              <g id="Сгруппировать_455" data-name="Сгруппировать 455">
                <g id="Сгруппировать_454" data-name="Сгруппировать 454">
                  <path id="Контур_59460" data-name="Контур 59460" d="M209.569,202.672c-4.965,0-6.422-2.032-6.7-2.508a.3.3,0,0,1,.11-.415.3.3,0,0,1,.411.111c.179.312,1.957,3.014,9.346,1.962a.3.3,0,0,1,.084.6A23.156,23.156,0,0,1,209.569,202.672Z" fill="#fcf8f0"/>
                </g>
              </g>
            </g>
            <g id="Сгруппировать_459" data-name="Сгруппировать 459">
              <g id="Сгруппировать_458" data-name="Сгруппировать 458">
                <g id="Сгруппировать_457" data-name="Сгруппировать 457">
                  <path id="Контур_59461" data-name="Контур 59461" d="M209.695,206.9a7.679,7.679,0,0,1-2.1-.255,2.54,2.54,0,0,1-1.6-1.033.3.3,0,0,1,.11-.415.3.3,0,0,1,.411.111c.1.171,1.112,1.645,6.388.636a.3.3,0,0,1,.112.6A17.941,17.941,0,0,1,209.695,206.9Z" fill="#fcf8f0"/>
                </g>
              </g>
            </g>
            <g id="Сгруппировать_462" data-name="Сгруппировать 462">
              <g id="Сгруппировать_461" data-name="Сгруппировать 461">
                <g id="Сгруппировать_460" data-name="Сгруппировать 460">
                  <path id="Контур_59462" data-name="Контур 59462" d="M210.77,211.112c-1.431,0-1.881-.447-2.019-.689a.3.3,0,0,1,.11-.415.3.3,0,0,1,.411.111c0,.007.444.711,3.29.2a.3.3,0,0,1,.105.6A10.89,10.89,0,0,1,210.77,211.112Z" fill="#fcf8f0"/>
                </g>
              </g>
            </g>
          </g>
          <g id="Сгруппировать_473" data-name="Сгруппировать 473">
            <g id="Сгруппировать_466" data-name="Сгруппировать 466">
              <g id="Сгруппировать_465" data-name="Сгруппировать 465">
                <g id="Сгруппировать_464" data-name="Сгруппировать 464">
                  <path id="Контур_59463" data-name="Контур 59463" d="M200.123,209.792a.3.3,0,0,1-.185-.064.305.305,0,0,1-.052-.426c4.6-5.922,3.166-8.826,2.987-9.138a.3.3,0,0,1,.11-.415.3.3,0,0,1,.411.111c.325.568,1.707,3.709-3.034,9.815A.3.3,0,0,1,200.123,209.792Z" fill="#fcf8f0"/>
                </g>
              </g>
            </g>
            <g id="Сгруппировать_469" data-name="Сгруппировать 469">
              <g id="Сгруппировать_468" data-name="Сгруппировать 468">
                <g id="Сгруппировать_467" data-name="Сгруппировать 467">
                  <path id="Контур_59464" data-name="Контур 59464" d="M203.574,212a.3.3,0,0,1-.2-.074.305.305,0,0,1-.032-.428c3.506-4.1,2.746-5.722,2.648-5.894a.3.3,0,0,1,.11-.415.3.3,0,0,1,.411.111,2.577,2.577,0,0,1,.088,1.912,12.486,12.486,0,0,1-2.8,4.681A.3.3,0,0,1,203.574,212Z" fill="#fcf8f0"/>
                </g>
              </g>
            </g>
            <g id="Сгруппировать_472" data-name="Сгруппировать 472">
              <g id="Сгруппировать_471" data-name="Сгруппировать 471">
                <g id="Сгруппировать_470" data-name="Сгруппировать 470">
                  <path id="Контур_59465" data-name="Контур 59465" d="M207.509,213.894a.3.3,0,0,1-.194-.071.305.305,0,0,1-.037-.428c1.861-2.229,1.476-2.965,1.472-2.972a.3.3,0,0,1,.11-.415.3.3,0,0,1,.411.111c.187.326.412,1.337-1.533,3.666A.3.3,0,0,1,207.509,213.894Z" fill="#fcf8f0"/>
                </g>
              </g>
            </g>
          </g>
          <path id="Контур_59466" data-name="Контур 59466" d="M211.883,215.585a.3.3,0,0,1-.261-.152l-14.689-25.641a.3.3,0,0,1,.11-.415.3.3,0,0,1,.411.111l14.689,25.641a.3.3,0,0,1-.11.415A.3.3,0,0,1,211.883,215.585Z" fill="#fcf8f0"/>
        </g>
        <g id="Сгруппировать_498" data-name="Сгруппировать 498">
          <g id="Сгруппировать_477" data-name="Сгруппировать 477">
            <g id="Сгруппировать_475" data-name="Сгруппировать 475">
              <path id="Контур_59467" data-name="Контур 59467" d="M226.571,190.266a.616.616,0,0,1-.412-.158c-.084-.076-8.495-7.563-14.013-8.4a12.712,12.712,0,0,0-6.479.617,13.3,13.3,0,0,0-4.46,2.861,16.673,16.673,0,0,0-3.446,4.707.62.62,0,0,1-.82.318.628.628,0,0,1-.316-.825,17.622,17.622,0,0,1,3.694-5.076,14.55,14.55,0,0,1,4.884-3.146,13.926,13.926,0,0,1,7.127-.693c2.488.377,5.716,1.962,9.595,4.71a63.649,63.649,0,0,1,5.059,3.992.629.629,0,0,1,.051.884A.618.618,0,0,1,226.571,190.266Z" fill="#fcf8f0"/>
            </g>
            <g id="Сгруппировать_476" data-name="Сгруппировать 476">
              <path id="Контур_59468" data-name="Контур 59468" d="M210.017,198.988a13.433,13.433,0,0,1-4.813-.871,14.551,14.551,0,0,1-4.884-3.146,17.622,17.622,0,0,1-3.694-5.076.628.628,0,0,1,.316-.826.619.619,0,0,1,.819.318h0a16.672,16.672,0,0,0,3.446,4.707,13.3,13.3,0,0,0,4.46,2.861,12.711,12.711,0,0,0,6.479.617c5.522-.837,13.929-8.323,14.013-8.4a.618.618,0,0,1,.877.052.629.629,0,0,1-.051.884,63.657,63.657,0,0,1-5.059,3.992c-3.878,2.748-7.106,4.333-9.595,4.71A15.433,15.433,0,0,1,210.017,198.988Z" fill="#fcf8f0"/>
            </g>
          </g>
          <g id="Сгруппировать_487" data-name="Сгруппировать 487">
            <g id="Сгруппировать_480" data-name="Сгруппировать 480">
              <g id="Сгруппировать_479" data-name="Сгруппировать 479">
                <g id="Сгруппировать_478" data-name="Сгруппировать 478">
                  <path id="Контур_59469" data-name="Контур 59469" d="M209.076,189.944a.3.3,0,0,1,0-.607c.357,0,3.569-.2,6.359-7.176a.3.3,0,0,1,.392-.168.3.3,0,0,1,.167.4C213.116,189.579,209.726,189.944,209.076,189.944Z" fill="#fcf8f0"/>
                </g>
              </g>
            </g>
            <g id="Сгруппировать_483" data-name="Сгруппировать 483">
              <g id="Сгруппировать_482" data-name="Сгруппировать 482">
                <g id="Сгруппировать_481" data-name="Сгруппировать 481">
                  <path id="Контур_59470" data-name="Контур 59470" d="M215.315,189.944a.3.3,0,0,1,0-.607c.2,0,1.969-.148,3.741-5.258a.3.3,0,0,1,.384-.186.3.3,0,0,1,.185.387A12.49,12.49,0,0,1,217,189.065,2.531,2.531,0,0,1,215.315,189.944Z" fill="#fcf8f0"/>
                </g>
              </g>
            </g>
            <g id="Сгруппировать_486" data-name="Сгруппировать 486">
              <g id="Сгруппировать_485" data-name="Сгруппировать 485">
                <g id="Сгруппировать_484" data-name="Сгруппировать 484">
                  <path id="Контур_59471" data-name="Контур 59471" d="M220.831,189.944a.3.3,0,0,1,0-.607c.008,0,.833-.032,1.818-2.771a.3.3,0,0,1,.386-.182.3.3,0,0,1,.181.389C222.185,189.635,221.2,189.944,220.831,189.944Z" fill="#fcf8f0"/>
                </g>
              </g>
            </g>
          </g>
          <g id="Сгруппировать_497" data-name="Сгруппировать 497">
            <g id="Сгруппировать_490" data-name="Сгруппировать 490">
              <g id="Сгруппировать_489" data-name="Сгруппировать 489">
                <g id="Сгруппировать_488" data-name="Сгруппировать 488">
                  <path id="Контур_59472" data-name="Контур 59472" d="M215.714,197.31a.3.3,0,0,1-.279-.19c-2.79-6.975-6-7.176-6.359-7.176a.3.3,0,0,1,0-.607c.65,0,4.041.364,6.917,7.556a.3.3,0,0,1-.167.4A.3.3,0,0,1,215.714,197.31Z" fill="#fcf8f0"/>
                </g>
              </g>
            </g>
            <g id="Сгруппировать_493" data-name="Сгруппировать 493">
              <g id="Сгруппировать_492" data-name="Сгруппировать 492">
                <g id="Сгруппировать_491" data-name="Сгруппировать 491">
                  <path id="Контур_59473" data-name="Контур 59473" d="M219.34,195.4a.3.3,0,0,1-.284-.2c-1.771-5.11-3.544-5.258-3.741-5.258a.3.3,0,0,1,0-.607,2.531,2.531,0,0,1,1.687.879A12.491,12.491,0,0,1,219.625,195a.3.3,0,0,1-.185.387A.3.3,0,0,1,219.34,195.4Z" fill="#fcf8f0"/>
                </g>
              </g>
            </g>
            <g id="Сгруппировать_496" data-name="Сгруппировать 496">
              <g id="Сгруппировать_495" data-name="Сгруппировать 495">
                <g id="Сгруппировать_494" data-name="Сгруппировать 494">
                  <path id="Контур_59474" data-name="Контур 59474" d="M222.932,192.915a.3.3,0,0,1-.283-.2c-.985-2.739-1.81-2.771-1.818-2.771a.3.3,0,0,1,0-.607c.374,0,1.355.309,2.384,3.171a.3.3,0,0,1-.181.389A.3.3,0,0,1,222.932,192.915Z" fill="#fcf8f0"/>
                </g>
              </g>
            </g>
          </g>
          <path id="Контур_59475" data-name="Контур 59475" d="M226.572,189.944H197.193a.3.3,0,0,1,0-.607h29.379a.3.3,0,0,1,0,.607Z" fill="#fcf8f0"/>
        </g>
        <g id="Сгруппировать_522" data-name="Сгруппировать 522">
          <g id="Сгруппировать_501" data-name="Сгруппировать 501">
            <g id="Сгруппировать_499" data-name="Сгруппировать 499">
              <path id="Контур_59476" data-name="Контур 59476" d="M197.193,190.266a.618.618,0,0,1-.5-.257,17.682,17.682,0,0,1-2.515-5.763,14.789,14.789,0,0,1-.261-5.836,14.188,14.188,0,0,1,2.968-6.567,16.29,16.29,0,0,1,3.952-3.363,41.691,41.691,0,0,1,4.892-2.656,63.275,63.275,0,0,1,5.96-2.42.62.62,0,0,1,.785.4.627.627,0,0,1-.394.791c-.107.036-10.746,3.633-14.224,8.031a12.952,12.952,0,0,0-2.709,5.963,13.515,13.515,0,0,0,.229,5.324,16.727,16.727,0,0,0,2.322,5.361.63.63,0,0,1-.137.874A.615.615,0,0,1,197.193,190.266Z" fill="#fcf8f0"/>
            </g>
            <g id="Сгруппировать_500" data-name="Сгруппировать 500">
              <path id="Контур_59477" data-name="Контур 59477" d="M198.271,190.31c-.681,0-1.1-.043-1.144-.048a.626.626,0,0,1,.132-1.245,16.427,16.427,0,0,0,5.768-.655,13.273,13.273,0,0,0,4.689-2.462,12.9,12.9,0,0,0,3.769-5.346c2.042-5.238-.188-16.318-.211-16.43a.621.621,0,1,1,1.217-.253,64.533,64.533,0,0,1,.9,6.411,42.427,42.427,0,0,1,.164,5.6,16.492,16.492,0,0,1-.914,5.131,14.134,14.134,0,0,1-4.159,5.874,14.526,14.526,0,0,1-5.146,2.69A18.1,18.1,0,0,1,198.271,190.31Z" fill="#fcf8f0"/>
            </g>
          </g>
          <g id="Сгруппировать_511" data-name="Сгруппировать 511">
            <g id="Сгруппировать_504" data-name="Сгруппировать 504">
              <g id="Сгруппировать_503" data-name="Сгруппировать 503">
                <g id="Сгруппировать_502" data-name="Сгруппировать 502">
                  <path id="Контур_59478" data-name="Контур 59478" d="M203.134,179.572a.3.3,0,0,1-.15-.041.3.3,0,0,1-.11-.415c.179-.312,1.611-3.215-2.987-9.138a.305.305,0,0,1,.052-.426.3.3,0,0,1,.423.052c4.742,6.107,3.36,9.248,3.034,9.815A.3.3,0,0,1,203.134,179.572Z" fill="#fcf8f0"/>
                </g>
              </g>
            </g>
            <g id="Сгруппировать_507" data-name="Сгруппировать 507">
              <g id="Сгруппировать_506" data-name="Сгруппировать 506">
                <g id="Сгруппировать_505" data-name="Сгруппировать 505">
                  <path id="Контур_59479" data-name="Контур 59479" d="M206.254,174.127a.3.3,0,0,1-.15-.041.3.3,0,0,1-.11-.415c.1-.171.858-1.793-2.648-5.893a.305.305,0,0,1,.032-.428.3.3,0,0,1,.425.032,12.487,12.487,0,0,1,2.8,4.681,2.577,2.577,0,0,1-.088,1.912A.3.3,0,0,1,206.254,174.127Z" fill="#fcf8f0"/>
                </g>
              </g>
            </g>
            <g id="Сгруппировать_510" data-name="Сгруппировать 510">
              <g id="Сгруппировать_509" data-name="Сгруппировать 509">
                <g id="Сгруппировать_508" data-name="Сгруппировать 508">
                  <path id="Контур_59480" data-name="Контур 59480" d="M209.011,169.313a.3.3,0,0,1-.15-.041.3.3,0,0,1-.11-.415c0-.007.389-.743-1.472-2.972a.305.305,0,0,1,.037-.428.3.3,0,0,1,.424.037c1.945,2.329,1.72,3.34,1.533,3.666A.3.3,0,0,1,209.011,169.313Z" fill="#fcf8f0"/>
                </g>
              </g>
            </g>
          </g>
          <g id="Сгруппировать_521" data-name="Сгруппировать 521">
            <g id="Сгруппировать_514" data-name="Сгруппировать 514">
              <g id="Сгруппировать_513" data-name="Сгруппировать 513">
                <g id="Сгруппировать_512" data-name="Сгруппировать 512">
                  <path id="Контур_59481" data-name="Контур 59481" d="M203.134,179.572a.3.3,0,0,1-.15-.041.3.3,0,0,1-.11-.415c.325-.568,2.333-3.344,9.952-2.259a.3.3,0,0,1-.084.6c-7.388-1.052-9.167,1.65-9.346,1.962A.3.3,0,0,1,203.134,179.572Z" fill="#fcf8f0"/>
                </g>
              </g>
            </g>
            <g id="Сгруппировать_517" data-name="Сгруппировать 517">
              <g id="Сгруппировать_516" data-name="Сгруппировать 516">
                <g id="Сгруппировать_515" data-name="Сгруппировать 515">
                  <path id="Контур_59482" data-name="Контур 59482" d="M206.254,174.127a.3.3,0,0,1-.15-.041.3.3,0,0,1-.11-.415,2.54,2.54,0,0,1,1.6-1.033,12.277,12.277,0,0,1,5.423.1.3.3,0,0,1-.112.6c-5.277-1.009-6.29.465-6.388.636A.3.3,0,0,1,206.254,174.127Z" fill="#fcf8f0"/>
                </g>
              </g>
            </g>
            <g id="Сгруппировать_520" data-name="Сгруппировать 520">
              <g id="Сгруппировать_519" data-name="Сгруппировать 519">
                <g id="Сгруппировать_518" data-name="Сгруппировать 518">
                  <path id="Контур_59483" data-name="Контур 59483" d="M209.011,169.313a.3.3,0,0,1-.15-.041.3.3,0,0,1-.11-.415c.187-.326.943-1.028,3.917-.5a.3.3,0,0,1-.105.6c-2.847-.51-3.286.194-3.29.2A.3.3,0,0,1,209.011,169.313Z" fill="#fcf8f0"/>
                </g>
              </g>
            </g>
          </g>
          <path id="Контур_59484" data-name="Контур 59484" d="M197.193,189.944a.3.3,0,0,1-.15-.041.3.3,0,0,1-.11-.415l14.689-25.641a.3.3,0,0,1,.411-.111.3.3,0,0,1,.11.415l-14.689,25.641A.3.3,0,0,1,197.193,189.944Z" fill="#fcf8f0"/>
        </g>
        <g id="Сгруппировать_527" data-name="Сгруппировать 527">
          <g id="Сгруппировать_526" data-name="Сгруппировать 526">
            <g id="Сгруппировать_525" data-name="Сгруппировать 525">
              <g id="Сгруппировать_523" data-name="Сгруппировать 523">
                <path id="Контур_59485" data-name="Контур 59485" d="M197.193,168.473a.3.3,0,0,1-.275-.181.3.3,0,0,1,.153-.4h0a5.343,5.343,0,0,0,1.508-1.124,4.071,4.071,0,0,0,1.1-3.535c-.268-1.8-2.69-4.561-2.714-4.588a.305.305,0,0,1,.025-.429.3.3,0,0,1,.425.025c.1.118,2.565,2.926,2.86,4.9A4.714,4.714,0,0,1,199,167.2a5.847,5.847,0,0,1-1.686,1.245A.3.3,0,0,1,197.193,168.473Z" fill="#fcf8f0"/>
              </g>
              <g id="Сгруппировать_524" data-name="Сгруппировать 524">
                <path id="Контур_59486" data-name="Контур 59486" d="M197.193,168.473a.3.3,0,0,1-.122-.026,5.848,5.848,0,0,1-1.686-1.245,4.714,4.714,0,0,1-1.277-4.058c.295-1.976,2.755-4.783,2.86-4.9a.3.3,0,0,1,.425-.025.305.305,0,0,1,.025.429c-.024.028-2.446,2.791-2.714,4.588a4.072,4.072,0,0,0,1.118,3.55,5.29,5.29,0,0,0,1.493,1.108.3.3,0,0,1,.153.4A.3.3,0,0,1,197.193,168.473Z" fill="#fcf8f0"/>
              </g>
            </g>
            <path id="Контур_59487" data-name="Контур 59487" d="M197.193,168.473a.3.3,0,0,1-.3-.3v-9.726a.3.3,0,1,1,.6,0v9.726A.3.3,0,0,1,197.193,168.473Z" fill="#fcf8f0"/>
          </g>
          <ellipse id="Эллипс_31" data-name="Эллипс 31" cx="0.746" cy="0.752" rx="0.746" ry="0.752" transform="matrix(0.259, -0.966, 0.966, 0.259, 189.476, 163.706)" fill="#fcf8f0"/>
          <ellipse id="Эллипс_32" data-name="Эллипс 32" cx="0.746" cy="0.752" rx="0.746" ry="0.752" transform="matrix(0.259, -0.966, 0.966, 0.259, 176.938, 171.001)" fill="#fcf8f0"/>
        </g>
        <g id="Сгруппировать_532" data-name="Сгруппировать 532">
          <g id="Сгруппировать_531" data-name="Сгруппировать 531">
            <g id="Сгруппировать_530" data-name="Сгруппировать 530">
              <g id="Сгруппировать_528" data-name="Сгруппировать 528">
                <path id="Контур_59488" data-name="Контур 59488" d="M178.743,179.209l-.032,0a.3.3,0,0,1-.267-.334,5.422,5.422,0,0,0-.212-1.878,4.039,4.039,0,0,0-2.486-2.73c-1.679-.665-5.264.067-5.3.075a.3.3,0,0,1-.122-.595c.154-.032,3.8-.775,5.642-.045a4.678,4.678,0,0,1,2.849,3.144,5.942,5.942,0,0,1,.227,2.094A.3.3,0,0,1,178.743,179.209Z" fill="#fcf8f0"/>
              </g>
              <g id="Сгруппировать_529" data-name="Сгруппировать 529">
                <path id="Контур_59489" data-name="Контур 59489" d="M175.813,180.146a4.613,4.613,0,0,1-2.932-1.062c-1.551-1.245-2.733-4.8-2.782-4.947a.3.3,0,0,1,.191-.384.3.3,0,0,1,.381.192c.012.035,1.175,3.53,2.586,4.663a4,4,0,0,0,3.609.8,5.268,5.268,0,0,0,1.7-.749.3.3,0,0,1,.421.066.305.305,0,0,1-.066.424,5.83,5.83,0,0,1-1.913.849A5.048,5.048,0,0,1,175.813,180.146Z" fill="#fcf8f0"/>
              </g>
            </g>
            <path id="Контур_59490" data-name="Контур 59490" d="M178.742,179.209a.3.3,0,0,1-.15-.041l-8.358-4.863a.3.3,0,0,1-.11-.415.3.3,0,0,1,.411-.111l8.357,4.863a.3.3,0,0,1,.11.415A.3.3,0,0,1,178.742,179.209Z" fill="#fcf8f0"/>
          </g>
          <ellipse id="Эллипс_33" data-name="Эллипс 33" cx="0.746" cy="0.752" rx="0.746" ry="0.752" transform="matrix(0.16, -0.987, 0.987, 0.16, 170.193, 182.966)" fill="#fcf8f0"/>
          <ellipse id="Эллипс_34" data-name="Эллипс 34" cx="0.746" cy="0.752" rx="0.746" ry="0.752" transform="matrix(0.16, -0.987, 0.987, 0.16, 170.193, 197.557)" fill="#fcf8f0"/>
        </g>
        <g id="Сгруппировать_543" data-name="Сгруппировать 543">
          <g id="Сгруппировать_537" data-name="Сгруппировать 537">
            <g id="Сгруппировать_536" data-name="Сгруппировать 536">
              <g id="Сгруппировать_535" data-name="Сгруппировать 535">
                <g id="Сгруппировать_533" data-name="Сгруппировать 533">
                  <path id="Контур_59491" data-name="Контур 59491" d="M170.385,205.542a.3.3,0,0,1-.095-.016.3.3,0,0,1-.191-.384c.05-.151,1.232-3.7,2.782-4.947a4.627,4.627,0,0,1,4.126-.915,5.83,5.83,0,0,1,1.913.849.305.305,0,0,1,.066.424.3.3,0,0,1-.42.067h0a5.322,5.322,0,0,0-1.72-.754,4,4,0,0,0-3.589.8,7.9,7.9,0,0,0-1.818,2.744,20.533,20.533,0,0,0-.767,1.919A.3.3,0,0,1,170.385,205.542Z" fill="#fcf8f0"/>
                </g>
                <g id="Сгруппировать_534" data-name="Сгруппировать 534">
                  <path id="Контур_59492" data-name="Контур 59492" d="M173.763,205.9a19.188,19.188,0,0,1-3.439-.365.3.3,0,0,1,.122-.595c.036.007,3.621.739,5.3.075a4.04,4.04,0,0,0,2.491-2.75,5.367,5.367,0,0,0,.206-1.857.3.3,0,1,1,.6-.065,5.942,5.942,0,0,1-.227,2.094,4.678,4.678,0,0,1-2.849,3.144A6.261,6.261,0,0,1,173.763,205.9Z" fill="#fcf8f0"/>
                </g>
              </g>
              <path id="Контур_59493" data-name="Контур 59493" d="M170.385,205.542a.3.3,0,0,1-.261-.152.3.3,0,0,1,.11-.415l8.358-4.863a.3.3,0,0,1,.411.111.3.3,0,0,1-.11.415l-8.357,4.863A.3.3,0,0,1,170.385,205.542Z" fill="#fcf8f0"/>
            </g>
            <ellipse id="Эллипс_35" data-name="Эллипс 35" cx="0.746" cy="0.752" rx="0.746" ry="0.752" transform="translate(177.106 208.059)" fill="#fcf8f0"/>
            <ellipse id="Эллипс_36" data-name="Эллипс 36" cx="0.746" cy="0.752" rx="0.746" ry="0.752" transform="translate(189.644 215.354)" fill="#fcf8f0"/>
          </g>
          <g id="Сгруппировать_542" data-name="Сгруппировать 542">
            <g id="Сгруппировать_541" data-name="Сгруппировать 541">
              <g id="Сгруппировать_540" data-name="Сгруппировать 540">
                <g id="Сгруппировать_538" data-name="Сгруппировать 538">
                  <path id="Контур_59494" data-name="Контур 59494" d="M197.193,221.14a.3.3,0,0,1-.225-.1c-.1-.118-2.565-2.926-2.86-4.9a4.714,4.714,0,0,1,1.277-4.058,5.849,5.849,0,0,1,1.686-1.245.3.3,0,0,1,.4.155.3.3,0,0,1-.153.4h0a5.34,5.34,0,0,0-1.508,1.124,4.071,4.071,0,0,0-1.1,3.535c.268,1.8,2.69,4.561,2.714,4.589a.305.305,0,0,1-.025.429A.3.3,0,0,1,197.193,221.14Z" fill="#fcf8f0"/>
                </g>
                <g id="Сгруппировать_539" data-name="Сгруппировать 539">
                  <path id="Контур_59495" data-name="Контур 59495" d="M197.193,221.14a.3.3,0,0,1-.2-.077.305.305,0,0,1-.025-.429c.024-.028,2.446-2.791,2.714-4.589a4.071,4.071,0,0,0-1.1-3.535,5.34,5.34,0,0,0-1.508-1.124.3.3,0,0,1-.153-.4.3.3,0,0,1,.4-.154A5.848,5.848,0,0,1,199,212.078a4.714,4.714,0,0,1,1.277,4.058c-.295,1.976-2.755,4.783-2.86,4.9A.3.3,0,0,1,197.193,221.14Z" fill="#fcf8f0"/>
                </g>
              </g>
              <path id="Контур_59496" data-name="Контур 59496" d="M197.193,221.14a.3.3,0,0,1-.3-.3v-9.726a.3.3,0,1,1,.6,0v9.726A.3.3,0,0,1,197.193,221.14Z" fill="#fcf8f0"/>
            </g>
            <ellipse id="Эллипс_37" data-name="Эллипс 37" cx="0.746" cy="0.752" rx="0.746" ry="0.752" transform="matrix(0.259, -0.966, 0.966, 0.259, 203.082, 216.638)" fill="#fcf8f0"/>
            <ellipse id="Эллипс_38" data-name="Эллипс 38" cx="0.746" cy="0.752" rx="0.746" ry="0.752" transform="matrix(0.259, -0.966, 0.966, 0.259, 215.62, 209.342)" fill="#fcf8f0"/>
          </g>
        </g>
        <g id="Сгруппировать_554" data-name="Сгруппировать 554">
          <g id="Сгруппировать_548" data-name="Сгруппировать 548">
            <g id="Сгруппировать_547" data-name="Сгруппировать 547">
              <g id="Сгруппировать_546" data-name="Сгруппировать 546">
                <g id="Сгруппировать_544" data-name="Сгруппировать 544">
                  <path id="Контур_59497" data-name="Контур 59497" d="M220.622,205.9a6.261,6.261,0,0,1-2.2-.32,4.678,4.678,0,0,1-2.849-3.144,5.942,5.942,0,0,1-.227-2.094.3.3,0,1,1,.6.064,5.423,5.423,0,0,0,.212,1.878,4.039,4.039,0,0,0,2.486,2.73c1.679.665,5.264-.067,5.3-.075a.3.3,0,0,1,.122.595A19.194,19.194,0,0,1,220.622,205.9Z" fill="#fcf8f0"/>
                </g>
                <g id="Сгруппировать_545" data-name="Сгруппировать 545">
                  <path id="Контур_59498" data-name="Контур 59498" d="M224,205.542a.3.3,0,0,1-.286-.208c-.012-.035-1.175-3.53-2.586-4.663a4,4,0,0,0-3.589-.8,5.322,5.322,0,0,0-1.72.754.3.3,0,0,1-.421-.067.3.3,0,0,1,.066-.424,5.831,5.831,0,0,1,1.913-.849,4.627,4.627,0,0,1,4.126.915c1.551,1.245,2.733,4.8,2.782,4.947a.3.3,0,0,1-.191.384A.3.3,0,0,1,224,205.542Z" fill="#fcf8f0"/>
                </g>
              </g>
              <path id="Контур_59499" data-name="Контур 59499" d="M224,205.542a.3.3,0,0,1-.15-.041l-8.358-4.863a.3.3,0,0,1-.11-.415.3.3,0,0,1,.411-.111l8.357,4.863a.3.3,0,0,1,.11.415A.3.3,0,0,1,224,205.542Z" fill="#fcf8f0"/>
            </g>
            <ellipse id="Эллипс_39" data-name="Эллипс 39" cx="0.746" cy="0.752" rx="0.746" ry="0.752" transform="translate(222.481 197.557) rotate(-80.783)" fill="#fcf8f0"/>
            <ellipse id="Эллипс_40" data-name="Эллипс 40" cx="0.746" cy="0.752" rx="0.746" ry="0.752" transform="translate(222.481 182.966) rotate(-80.783)" fill="#fcf8f0"/>
          </g>
          <g id="Сгруппировать_553" data-name="Сгруппировать 553">
            <g id="Сгруппировать_552" data-name="Сгруппировать 552">
              <g id="Сгруппировать_551" data-name="Сгруппировать 551">
                <g id="Сгруппировать_549" data-name="Сгруппировать 549">
                  <path id="Контур_59500" data-name="Контур 59500" d="M218.572,180.146a5.048,5.048,0,0,1-1.194-.147,5.831,5.831,0,0,1-1.913-.849.305.305,0,0,1-.066-.424.3.3,0,0,1,.421-.067,5.322,5.322,0,0,0,1.719.754,4,4,0,0,0,3.589-.8,7.9,7.9,0,0,0,1.818-2.744,20.521,20.521,0,0,0,.767-1.919.3.3,0,0,1,.381-.193.3.3,0,0,1,.191.384c-.05.151-1.232,3.7-2.782,4.947A4.613,4.613,0,0,1,218.572,180.146Z" fill="#fcf8f0"/>
                </g>
                <g id="Сгруппировать_550" data-name="Сгруппировать 550">
                  <path id="Контур_59501" data-name="Контур 59501" d="M215.643,179.209a.3.3,0,0,1-.3-.271,5.942,5.942,0,0,1,.227-2.094,4.678,4.678,0,0,1,2.849-3.144c1.845-.731,5.488.013,5.642.045a.3.3,0,0,1-.122.595c-.036-.007-3.621-.739-5.3-.075a4.04,4.04,0,0,0-2.491,2.75,5.367,5.367,0,0,0-.206,1.857.3.3,0,0,1-.267.334Z" fill="#fcf8f0"/>
                </g>
              </g>
              <path id="Контур_59502" data-name="Контур 59502" d="M215.643,179.209a.3.3,0,0,1-.261-.152.3.3,0,0,1,.11-.415l8.358-4.863a.3.3,0,0,1,.411.111.3.3,0,0,1-.11.415l-8.357,4.863A.3.3,0,0,1,215.643,179.209Z" fill="#fcf8f0"/>
            </g>
            <ellipse id="Эллипс_41" data-name="Эллипс 41" cx="0.746" cy="0.752" rx="0.746" ry="0.752" transform="translate(215.788 169.718)" fill="#fcf8f0"/>
            <path id="Контур_59503" data-name="Контур 59503" d="M204.642,163.55a.743.743,0,0,1-1.019.275.755.755,0,0,1-.273-1.027.743.743,0,0,1,1.019-.275A.755.755,0,0,1,204.642,163.55Z" fill="#fcf8f0"/>
          </g>
        </g>
      </g>
    </g>
    <path id="Color_Overlay" data-name="Color Overlay" d="M402.014,5726h-.052l-.019,0h-.032l-.007,0a.008.008,0,0,0-.006,0l-.009,0h0l-.027-.013h0l-.007,0h0a.052.052,0,0,1-.014-.01h0l-.006,0,0,0a.017.017,0,0,0-.007-.005h0a.43.43,0,0,1-.045-.043c-.168-.191-2.564-2.947-2.854-4.9a4.71,4.71,0,0,1,1.278-4.058,5.9,5.9,0,0,1,1.668-1.237.312.312,0,0,1,.131-.034h.017l.057.007s0,0,0,0l.009,0h.013l.009,0,.006,0a.011.011,0,0,0,.007,0s0,0,.007,0h0a5.915,5.915,0,0,1,1.686,1.246,4.715,4.715,0,0,1,1.278,4.058c-.29,1.947-2.686,4.7-2.854,4.9l-.009.011h0a.347.347,0,0,1-.055.047h0l-.007,0h0s0,0,0,0a0,0,0,0,0,0,0h0a0,0,0,0,0,0,0s0,0,0,0h0l-.016.008h0a.007.007,0,0,1-.006,0l-.007,0-.019.006a.037.037,0,0,1-.012,0h0l-.009,0h-.05Zm.287-1.143a10.748,10.748,0,0,0,2.189-3.95,4.074,4.074,0,0,0-1.105-3.535,5.539,5.539,0,0,0-1.084-.888Zm-1.687-7.485a4.068,4.068,0,0,0-1.1,3.535,10.721,10.721,0,0,0,2.186,3.95v-8.374A5.538,5.538,0,0,0,400.614,5717.372Zm8,4.32a.751.751,0,1,1,.2.026A.785.785,0,0,1,408.616,5721.692Zm-14.163-.726a.745.745,0,1,1,.744.751A.748.748,0,0,1,394.452,5720.966Zm22.25-.2h-.045a.5.5,0,0,1-.137-.023.346.346,0,0,1-.037-.011,63.192,63.192,0,0,1-5.949-2.417,41.634,41.634,0,0,1-4.892-2.654,16.677,16.677,0,0,1-3.853-3.239,21.261,21.261,0,0,1-5.951,4.347c-.007.007-.014.016-.023.023a.313.313,0,0,1-.148.069q-1.093.58-2.337,1.163c-.5.231-.98.449-1.444.652l-.01.007a.293.293,0,0,1-.171.07c-1.664.719-3.065,1.239-3.784,1.5a.62.62,0,0,1-1.22.019,64.575,64.575,0,0,1-.9-6.411,42.621,42.621,0,0,1-.164-5.6,17.646,17.646,0,0,1,.75-4.673c-2.419-.5-5.484-2.049-9.119-4.625a63.746,63.746,0,0,1-5.047-3.979c-.022-.02-.043-.04-.065-.063a.631.631,0,0,1-.08-.717s0-.008.007-.013h0a.032.032,0,0,0,.007-.012s0,0,0,0a.049.049,0,0,0,0-.009l0,0,0-.007.006-.008,0,0s0-.007.007-.01h0c.011-.013.023-.027.034-.042a.587.587,0,0,1,.069-.066,63.55,63.55,0,0,1,5.043-3.977c3.636-2.577,6.7-4.131,9.118-4.625a17.731,17.731,0,0,1-.749-4.673,42.614,42.614,0,0,1,.164-5.6c.3-3.4.861-6.214.9-6.4l0-.023h0a.044.044,0,0,0,0-.013s0-.007,0-.01v0a.62.62,0,0,1,.043-.112s0,0,0,0a.025.025,0,0,1,0-.007s0,0,0,0l0,0s0-.005,0-.008a0,0,0,0,0,0,0,.628.628,0,0,1,.3-.268.576.576,0,0,1,.2-.049h.036a.6.6,0,0,1,.184.023l.033.01a63.142,63.142,0,0,1,5.952,2.417,41.965,41.965,0,0,1,4.892,2.656,17.4,17.4,0,0,1,3.641,2.992,17.411,17.411,0,0,1,3.643-2.992,41.845,41.845,0,0,1,4.892-2.656,63.354,63.354,0,0,1,5.949-2.416.258.258,0,0,1,.036-.012.594.594,0,0,1,.184-.023h.012a.608.608,0,0,1,.362.137h0l.007.006h0s0,0,.006.005l0,0,0,0s0,0,.006.006l0,0,.007.006s0,0,0,0l.009.008h0l.009.007h0a.5.5,0,0,1,.05.06l0,0,0,.007,0,0,0,0,0,.007,0,0,.006.007h0a.632.632,0,0,1,.073.168s0,0,0,.006a.011.011,0,0,1,0,.007.174.174,0,0,1,.009.037c.037.187.6,3,.9,6.4a42.372,42.372,0,0,1,.164,5.6,17.612,17.612,0,0,1-.749,4.673c2.42.494,5.484,2.049,9.119,4.625a63.933,63.933,0,0,1,5.043,3.977.578.578,0,0,1,.068.066l.034.042s0,0,0,0a.015.015,0,0,1,.006.007.032.032,0,0,1,.006.007s0,0,0,.005,0,.006.006.009,0,0,0,0l.009.011a.641.641,0,0,1,.075.184h0s0,.007,0,.012a0,0,0,0,1,0,0s0,.007,0,.013h0a.044.044,0,0,1,0,.013v0s0,.007,0,.012v0a.022.022,0,0,0,0,.01v.006a.025.025,0,0,0,0,.01v0s0,.007,0,.013h0v.078c0,.006,0,.009,0,.014h0a.041.041,0,0,0,0,.013h0s0,.01,0,.014a.633.633,0,0,1-.121.295.006.006,0,0,0,0,0s0,0,0,.006l-.024.029a.663.663,0,0,1-.065.063,63.976,63.976,0,0,1-5.045,3.979c-3.636,2.577-6.7,4.13-9.121,4.625a17.528,17.528,0,0,1,.75,4.673,42.378,42.378,0,0,1-.164,5.6,64.405,64.405,0,0,1-.9,6.4.014.014,0,0,1,0,.007h0s0,0,0,0a.542.542,0,0,1-.017.068.623.623,0,0,1-.405.4h-.016l-.007,0h-.023l-.029.006h-.009s0,0-.006,0h-.037a.011.011,0,0,0-.007,0H416.7Zm-28.723-1.185c.708-.26,1.855-.694,3.2-1.27a7.208,7.208,0,0,1-1.259-2.128Zm25.042-1.533c1.1.469,2.064.841,2.752,1.1l-1.7-2.963A6.681,6.681,0,0,1,413.02,5718.05Zm3.275.795c.124-.73.285-1.756.433-2.953a9.1,9.1,0,0,1-1.151.079,4.793,4.793,0,0,1-.98-.089Zm-28.588,0,1.7-2.965a4.7,4.7,0,0,1-.982.091,9.138,9.138,0,0,1-1.151-.079C387.421,5717.089,387.582,5718.115,387.707,5718.845Zm2.738-3.567,0,0c-.01.02-.352.718,1.318,2.782,1.061-.466,2.22-1.009,3.374-1.614a11.9,11.9,0,0,1-2.544-4.373c-.036-.142-.062-.276-.082-.4Zm20.966-3.2a11.444,11.444,0,0,1-2.337,4.12c1.155.6,2.315,1.145,3.373,1.606,1.449-1.88,1.115-2.516,1.111-2.522s0,0,0-.006l-2.062-3.6C411.473,5711.8,411.445,5711.936,411.411,5712.078ZM393.2,5710.46a.03.03,0,0,1-.006.009c-.1.169-.833,1.74,2.477,5.692a31.22,31.22,0,0,0,3-1.832c-2.687-3.527-3.315-6.044-3.314-7.631Zm12.313,3.614a31.057,31.057,0,0,0,3.013,1.835c3.072-3.768,2.364-5.275,2.269-5.44a.031.031,0,0,0-.006-.009l-2.153-3.761C408.643,5708.247,408.045,5710.68,405.517,5714.074Zm8.566.911c.043.059.5.592,2.719.286.132-1.155.247-2.437.306-3.746a16.688,16.688,0,0,1-2.607.231,7.7,7.7,0,0,1-2.1-.254c-.139-.041-.269-.083-.385-.129Zm-26.886.286c2.338.322,2.719-.286,2.722-.292l0-.006,2.062-3.6c-.118.046-.246.089-.387.129a7.688,7.688,0,0,1-2.1.254,16.7,16.7,0,0,1-2.607-.231C386.949,5712.833,387.066,5714.116,387.2,5715.271Zm9.115-10.237c-.2.359-1.526,3.208,2.851,8.941a13.507,13.507,0,0,0,2.248-2.041,14.086,14.086,0,0,1-2.69-6.2,14.56,14.56,0,0,1,.1-5.07Zm8.392-5.064a14.461,14.461,0,0,1,.257,5.708,13.649,13.649,0,0,1-2.387,5.728c.027.037.057.075.086.11a12.542,12.542,0,0,0,2.367,2.2c4.149-5.567,2.854-8.336,2.657-8.687l-3.039-5.307C404.667,5699.807,404.687,5699.888,404.706,5699.97Zm-17.838,10.936c4.774.8,5.715-.575,5.81-.74a.051.051,0,0,1,.007-.012l2.153-3.759a10.2,10.2,0,0,1-5.214,1.137,22.326,22.326,0,0,1-2.686-.174A31.856,31.856,0,0,0,386.868,5710.905Zm24.461-.73c.125.206,1.119,1.51,5.8.73a31.844,31.844,0,0,0-.072-3.548,22.307,22.307,0,0,1-2.686.174,10.218,10.218,0,0,1-5.212-1.135Zm-9.918-13.387a17,17,0,0,0-1.229,3.441,13.494,13.494,0,0,0-.23,5.324,12.75,12.75,0,0,0,2.245,5.342,13.049,13.049,0,0,0,2.17-5.3,13.853,13.853,0,0,0-.24-5.459,16.974,16.974,0,0,0-.671-2.15,18.472,18.472,0,0,1-1.456-2.144C401.839,5696.118,401.643,5696.439,401.41,5696.788Zm6.786,7.921a.045.045,0,0,0,.007.01c.172.3,1.868,2.881,8.8,2.035a13.137,13.137,0,0,0-.642-2.986,15.015,15.015,0,0,1-1.536.079,13.449,13.449,0,0,1-4.813-.869,14.366,14.366,0,0,1-4.307-2.619Zm-21.2,2.045c6.843.835,8.582-1.664,8.793-2.022l2.506-4.375a14.37,14.37,0,0,1-4.307,2.62,13.451,13.451,0,0,1-4.814.869,15.015,15.015,0,0,1-1.536-.079A13.137,13.137,0,0,0,387,5706.754Zm19.016-7.8a13.292,13.292,0,0,0,4.461,2.86,12.413,12.413,0,0,0,5.373.743,12.615,12.615,0,0,0-3.324-4.317,13.292,13.292,0,0,0-4.689-2.463,16.82,16.82,0,0,0-3.57-.648c-.45.031-.851.042-1.186.042h-.024A17.22,17.22,0,0,0,406.013,5698.954Zm-9.847-3.177a13.28,13.28,0,0,0-4.689,2.463,12.579,12.579,0,0,0-3.324,4.317,12.407,12.407,0,0,0,5.372-.743,13.292,13.292,0,0,0,4.461-2.86,16.9,16.9,0,0,0,2.342-2.795c.185-.378.362-.71.52-.989-.319,0-.694-.012-1.111-.042A16.815,16.815,0,0,0,396.167,5695.776Zm17.122,1.477a13.94,13.94,0,0,1,3.856,5.146,12.95,12.95,0,0,0,2.887-.931c-2.739-6.474-5.8-6.664-6.149-6.664h-5A14.294,14.294,0,0,1,413.289,5697.253Zm-29.32,4.215a12.95,12.95,0,0,0,2.887.931,13.94,13.94,0,0,1,3.856-5.146,14.3,14.3,0,0,1,4.4-2.449h-5C389.769,5694.8,386.707,5694.995,383.969,5701.468Zm36.61-.251a30.911,30.911,0,0,0,3.085-1.711c-1.7-4.564-3.353-4.7-3.542-4.7H415.8C417.133,5695.575,418.926,5697.314,420.579,5701.217Zm-40.243-1.711a31.053,31.053,0,0,0,3.084,1.711c1.654-3.9,3.446-5.642,4.777-6.412h-4.32C383.689,5694.8,382.039,5694.941,380.336,5699.505Zm41.473-4.43a11.424,11.424,0,0,1,2.374,4.1c1.1-.707,2.14-1.448,3.067-2.141-.891-2.2-1.605-2.23-1.612-2.23h-4.131C421.605,5694.884,421.706,5694.975,421.809,5695.075Zm-45.058,1.958c.925.693,1.97,1.436,3.065,2.141a11.449,11.449,0,0,1,2.374-4.1c.1-.1.206-.191.3-.271h-4.132C378.355,5694.8,377.642,5694.831,376.751,5697.034Zm51-.374c.954-.73,1.756-1.382,2.321-1.855h-3.4A6.622,6.622,0,0,1,427.747,5696.66Zm-51.495,0a6.739,6.739,0,0,1,1.075-1.854h-3.394C374.5,5695.278,375.3,5695.93,376.252,5696.659Zm50.42-2.463h3.4c-.566-.473-1.368-1.125-2.321-1.854A6.667,6.667,0,0,1,426.672,5694.2Zm-4.863-.271c-.1.1-.206.191-.3.271h4.131c.007,0,.721-.026,1.612-2.229-.927-.693-1.972-1.436-3.067-2.141A11.442,11.442,0,0,1,421.809,5693.925Zm-6.005.271h4.318c.19,0,1.839-.137,3.542-4.7a30.911,30.911,0,0,0-3.085-1.711C418.926,5691.687,417.133,5693.425,415.8,5694.2Zm-2.515-2.449a14.294,14.294,0,0,1-4.4,2.449h5c.348,0,3.41-.191,6.149-6.664a12.95,12.95,0,0,0-2.887-.931A13.952,13.952,0,0,1,413.289,5691.747Zm-29.32-4.215c2.738,6.472,5.8,6.664,6.148,6.664h5a14.3,14.3,0,0,1-4.4-2.449,13.952,13.952,0,0,1-3.856-5.146A12.874,12.874,0,0,0,383.969,5687.532Zm-3.633,1.961c1.7,4.565,3.353,4.7,3.541,4.7h4.32c-1.331-.771-3.124-2.511-4.777-6.412A31.035,31.035,0,0,0,380.336,5689.494Zm-3.585,2.472c.891,2.2,1.6,2.23,1.611,2.23h4.133c-.1-.079-.2-.17-.3-.271a11.457,11.457,0,0,1-2.374-4.1C378.721,5690.531,377.676,5691.272,376.751,5691.965Zm-2.818,2.23h3.394a6.73,6.73,0,0,1-1.075-1.855C375.3,5693.07,374.5,5693.723,373.933,5694.2Zm14.221-7.751a12.617,12.617,0,0,0,3.344,4.333,13.281,13.281,0,0,0,4.711,2.459,16.753,16.753,0,0,0,3.521.636c.421-.03.8-.04,1.119-.042-.158-.279-.335-.611-.52-.989a16.969,16.969,0,0,0-2.342-2.795,13.319,13.319,0,0,0-4.461-2.861,12.2,12.2,0,0,0-4.351-.78Q388.67,5686.405,388.154,5686.444Zm22.32.741a13.32,13.32,0,0,0-4.461,2.861,16.887,16.887,0,0,0-2.341,2.793c-.185.378-.362.71-.52.99.319,0,.691.012,1.107.04a16.681,16.681,0,0,0,3.575-.648,13.266,13.266,0,0,0,4.689-2.461,12.632,12.632,0,0,0,3.324-4.317q-.515-.039-1.022-.039A12.2,12.2,0,0,0,410.474,5687.186Zm-10.522-3.739a13.494,13.494,0,0,0,.23,5.324,17.063,17.063,0,0,0,1.229,3.441c.233.349.428.67.589.949.161-.279.358-.6.589-.949a16.988,16.988,0,0,0,1.232-3.441,13.574,13.574,0,0,0,.228-5.324,12.7,12.7,0,0,0-2.049-5.06A12.678,12.678,0,0,0,399.952,5683.447Zm-5.962,2.576a14.335,14.335,0,0,1,4.307,2.619l-2.515-4.39c-.253-.41-2.038-2.828-8.785-2a13.124,13.124,0,0,0,.642,2.985c.517-.052,1.03-.079,1.536-.079A13.452,13.452,0,0,1,393.99,5686.023Zm14.221-1.756-2.5,4.373a14.307,14.307,0,0,1,4.305-2.617,13.776,13.776,0,0,1,6.349-.792,13.047,13.047,0,0,0,.642-2.985,21.688,21.688,0,0,0-2.61-.169C409.7,5682.077,408.393,5683.959,408.21,5684.267Zm-11.9-.3,2.5,4.373a14.56,14.56,0,0,1-.1-5.07,14,14,0,0,1,2.495-5.938,13.072,13.072,0,0,0-2.245-2.052C394.823,5680.846,396.118,5683.615,396.313,5683.967Zm6.471-6.635a14,14,0,0,1,2.495,5.938,14.52,14.52,0,0,1-.1,5.068l2.5-4.372c.194-.349,1.493-3.117-2.657-8.687A13.071,13.071,0,0,0,402.784,5677.332Zm8.55,1.483-2.171,3.79c1.328-.776,3.719-1.47,7.9-.961a31.509,31.509,0,0,0,.072-3.548,16.248,16.248,0,0,0-2.647-.248C412.088,5677.848,411.448,5678.635,411.335,5678.815Zm-16.5,3.79-2.164-3.778c-.119-.2-1.1-1.516-5.806-.731a31.864,31.864,0,0,0,.07,3.548,22.367,22.367,0,0,1,2.687-.174A10.219,10.219,0,0,1,394.837,5682.6Zm-1.638-4.073a.023.023,0,0,1,.006.01l2.154,3.761c0-1.548.595-3.982,3.121-7.376a31.042,31.042,0,0,0-3.011-1.836C392.4,5676.858,393.106,5678.367,393.2,5678.532Zm12.32-3.605c2.526,3.393,3.124,5.827,3.123,7.375l2.153-3.759.006-.01c.095-.165.8-1.674-2.269-5.442A31.062,31.062,0,0,0,405.519,5674.926ZM391.6,5677.5c.141.041.269.083.387.129l-2.062-3.6,0-.006c0-.006-.382-.615-2.722-.292-.132,1.155-.249,2.437-.308,3.746a16.719,16.719,0,0,1,2.607-.233A7.691,7.691,0,0,1,391.6,5677.5Zm22.484-3.483-2.069,3.611c.118-.044.246-.089.385-.128a11.252,11.252,0,0,1,4.709-.023c-.057-1.309-.174-2.591-.306-3.746a9,9,0,0,0-1.227-.094C414.4,5673.636,414.117,5673.969,414.084,5674.015Zm-5.009-1.214a11.438,11.438,0,0,1,2.337,4.122c.034.142.062.276.082.4l2.062-3.6s0,0,0-.006.338-.642-1.109-2.522C411.389,5671.657,410.229,5672.2,409.074,5672.8Zm-18.633.917,0,0,2.064,3.6c.02-.126.046-.26.082-.4a11.415,11.415,0,0,1,2.335-4.12c-1.154-.6-2.314-1.145-3.373-1.606C390.105,5673.076,390.437,5673.712,390.441,5673.718Zm24.155-.6a6.6,6.6,0,0,1,2.131-.012c-.148-1.2-.309-2.222-.433-2.952Zm-25.194,0-1.7-2.963c-.125.73-.286,1.756-.434,2.952a9.382,9.382,0,0,1,1.15-.079A4.771,4.771,0,0,1,389.4,5673.119Zm.522-.3a6.71,6.71,0,0,1,1.056-1.867c-1.1-.467-2.065-.839-2.753-1.1Zm23.1-1.867a6.7,6.7,0,0,1,1.055,1.865l1.7-2.962C415.084,5670.109,414.121,5670.481,413.02,5670.949Zm8.134,43.449a.749.749,0,1,1,.2.026A.776.776,0,0,1,421.154,5714.4Zm-39.241-.727a.746.746,0,1,1,.746.751A.749.749,0,0,1,381.913,5713.67Zm41.313-3.23a4.677,4.677,0,0,1-2.848-3.143,5.93,5.93,0,0,1-.227-2.094c0-.005,0-.013,0-.019s0,0,0,0,0-.006,0-.008a.065.065,0,0,1,0-.007.005.005,0,0,0,0,0,.42.42,0,0,1,.014-.046,0,0,0,0,0,0,0l0-.009s0,0,0,0l0-.007a.008.008,0,0,1,0-.006s0,0,0,0a.264.264,0,0,1,.047-.064h0a.309.309,0,0,1,.047-.039,5.914,5.914,0,0,1,1.9-.839,4.628,4.628,0,0,1,4.126.914c1.519,1.222,2.686,4.656,2.778,4.935,0,.007.006.016.009.024v0a.328.328,0,0,1,.007.135s0,0,0,0a.211.211,0,0,1-.007.029h0v0a.019.019,0,0,0,0,.008.005.005,0,0,0,0,0h0s0,.007-.006.01h0s0,.007,0,.01,0,0,0,.006a.025.025,0,0,1,0,.007h0s0,0,0,0l0,.008h0a.082.082,0,0,1-.007.012.19.19,0,0,1-.024.033l0,.006h0a.283.283,0,0,1-.076.061h0a.012.012,0,0,1-.009,0,.214.214,0,0,1-.039.017l-.01,0-.01,0h-.009l-.009,0a19.382,19.382,0,0,1-3.436.363A6.242,6.242,0,0,1,423.226,5710.44Zm-2.265-3.3a4.038,4.038,0,0,0,2.486,2.73,10.506,10.506,0,0,0,4.488.066l-7.2-4.187A5.57,5.57,0,0,0,420.961,5707.145Zm1.385-2.418a5.429,5.429,0,0,0-1.3.5l7.2,4.186a10.72,10.72,0,0,0-2.3-3.884,3.993,3.993,0,0,0-2.545-.933A4.531,4.531,0,0,0,422.347,5704.726Zm-47.2,5.672a.226.226,0,0,1-.046-.011.248.248,0,0,1-.042-.019s0,0-.007,0h0a.288.288,0,0,1-.1-.086.27.27,0,0,1-.017-.024s0,0,0,0,0,0,0-.007v0s0,0,0,0,0-.006,0-.009a0,0,0,0,1,0,0h0l0-.01s0,0,0,0v0s0-.006,0-.007v0a.005.005,0,0,1,0,0h0s0,0,0-.007h0s0,0,0,0a.016.016,0,0,1,0-.007,0,0,0,0,1,0,0s0,0,0,0v-.006s0,0,0,0h0s0-.009,0-.013h0v-.007a.282.282,0,0,1,.006-.109s0,0,0,0,0-.007,0-.008,0-.007,0-.01h0v0s0,0,0,0c.07-.212,1.244-3.708,2.781-4.942a4.627,4.627,0,0,1,4.126-.914,5.833,5.833,0,0,1,1.905.845h0l.006,0a.3.3,0,0,1,.119.211,5.949,5.949,0,0,1-.228,2.094,4.673,4.673,0,0,1-2.848,3.143,6.242,6.242,0,0,1-2.2.32A19.257,19.257,0,0,1,375.143,5710.4Zm.921-.457a10.513,10.513,0,0,0,4.489-.066,4.038,4.038,0,0,0,2.49-2.75,5.6,5.6,0,0,0,.217-1.37Zm2-4.411a7.889,7.889,0,0,0-1.819,2.745c-.193.421-.356.817-.481,1.141l7.2-4.187a5.4,5.4,0,0,0-1.3-.5,4.54,4.54,0,0,0-1.045-.128A3.99,3.99,0,0,0,378.064,5705.531Zm49.966-2.993a.749.749,0,1,1,.122.01A.877.877,0,0,1,428.03,5702.538Zm-52.288,0a.749.749,0,1,1,.122.01A.877.877,0,0,1,375.742,5702.538Zm52.288-14.59a.759.759,0,1,1,.122.009A.872.872,0,0,1,428.03,5687.947Zm-52.288,0a.759.759,0,1,1,.122.009A.872.872,0,0,1,375.742,5687.947Zm46.444-3.088a5.846,5.846,0,0,1-1.907-.845.127.127,0,0,1-.014-.01l-.006,0-.007-.007a.216.216,0,0,1-.032-.032,0,0,0,0,0,0,0,.316.316,0,0,1-.029-.043.229.229,0,0,1-.032-.081.005.005,0,0,1,0,0s0,0,0,0a.127.127,0,0,1,0-.033,5.928,5.928,0,0,1,.227-2.094,4.677,4.677,0,0,1,2.848-3.143c1.809-.717,5.341-.017,5.629.042a.252.252,0,0,1,.049.011s0,0,.006,0,0,0,0,0h0a.059.059,0,0,0,.014.006l0,0h0l.006,0h0l.006,0,.006,0h0a.291.291,0,0,1,.088.076h0a.168.168,0,0,1,.013.016.052.052,0,0,0,.007.012h0s0,.008.006.013a.3.3,0,0,1,.016.25c-.092.277-1.259,3.713-2.778,4.934a4.613,4.613,0,0,1-2.932,1.062A5.077,5.077,0,0,1,422.186,5684.859Zm-1.144-1.088a5.472,5.472,0,0,0,1.3.5,4,4,0,0,0,3.59-.8,7.9,7.9,0,0,0,1.818-2.745c.194-.419.358-.817.483-1.141Zm2.406-4.646a4.034,4.034,0,0,0-2.492,2.75,5.514,5.514,0,0,0-.216,1.37l7.2-4.187a17.565,17.565,0,0,0-2.526-.212A5.614,5.614,0,0,0,423.447,5679.125Zm-45.758,4.818c-1.551-1.245-2.733-4.8-2.784-4.946a.005.005,0,0,0,0,0v-.007h0a.053.053,0,0,1,0-.007s0,0,0,0a.253.253,0,0,1-.009-.065h0v-.02a.335.335,0,0,1,.034-.128.057.057,0,0,1,.007-.013l.009-.015.012-.016h0a.312.312,0,0,1,.088-.076h0a.023.023,0,0,0,.01-.006h0l.009-.005h0l.006,0h0l.012-.006h0l0,0h.006a.239.239,0,0,1,.047-.011c.289-.059,3.821-.759,5.629-.042a4.673,4.673,0,0,1,2.848,3.143,5.948,5.948,0,0,1,.228,2.094.261.261,0,0,1-.006.033s0,0,0,0v.006a.326.326,0,0,1-.032.078.227.227,0,0,1-.03.043h0a.364.364,0,0,1-.042.041h0l-.017.012a5.833,5.833,0,0,1-1.905.845,5.077,5.077,0,0,1-1.194.146A4.607,4.607,0,0,1,377.689,5683.944Zm.375-.474a4,4,0,0,0,3.608.8,5.518,5.518,0,0,0,1.286-.5l-7.2-4.187A10.7,10.7,0,0,0,378.064,5683.47Zm-2-4.411,7.2,4.187a5.592,5.592,0,0,0-.221-1.391,4.036,4.036,0,0,0-2.486-2.729,5.589,5.589,0,0,0-1.963-.279A17.565,17.565,0,0,0,376.064,5679.059Zm44.531-3.729a.746.746,0,1,1,.746.751A.748.748,0,0,1,420.595,5675.33Zm-38.123.726a.75.75,0,1,1,.2.026A.757.757,0,0,1,382.472,5676.056ZM402,5673.334h-.014a0,0,0,0,0,0,0,.294.294,0,0,1-.129-.037,5.915,5.915,0,0,1-1.661-1.233,4.71,4.71,0,0,1-1.278-4.058c.287-1.927,2.631-4.643,2.847-4.888A.3.3,0,0,1,402,5663H402a.3.3,0,0,1,.236.116c.216.246,2.559,2.96,2.847,4.888a4.715,4.715,0,0,1-1.278,4.058,5.905,5.905,0,0,1-1.667,1.236.286.286,0,0,1-.124.034H402Zm.3-.817a5.539,5.539,0,0,0,1.084-.888,4.076,4.076,0,0,0,1.105-3.535,10.736,10.736,0,0,0-2.189-3.949Zm-2.789-4.423a4.071,4.071,0,0,0,1.117,3.551,5.5,5.5,0,0,0,1.069.873v-8.373A10.709,10.709,0,0,0,399.512,5668.093Zm-4.5.667a.745.745,0,1,1,.2.027A.778.778,0,0,1,395.01,5668.76Zm13.421-.075a.754.754,0,0,1-.273-1.028.743.743,0,0,1,1.019-.274.756.756,0,0,1,.273,1.027.743.743,0,0,1-1.019.275Z" fill="#7492ec"/>
  </g>
</svg>
