<svg xmlns="http://www.w3.org/2000/svg" width="92.999" height="45" viewBox="0 0 92.999 45">
  <g id="Vector_Smart_Object" data-name="Vector Smart Object" transform="translate(-564.311 -56.923)">
    <g id="Сгруппировать_357" data-name="Сгруппировать 357">
      <path id="Контур_59303" data-name="Контур 59303" d="M601.936,71.207A2.211,2.211,0,0,1,599.6,69.9c-.6-1.2-.1-.627-1.04-1.613a1.451,1.451,0,0,1-.371-.693.514.514,0,0,1,.3-.582,26.6,26.6,0,0,0,3.033-1.665c1.343-.827.365-1.7,1.034-2.279a10.616,10.616,0,0,0,.83-.827,9.436,9.436,0,0,1,4.608-3.1,10.46,10.46,0,0,1,4.3-.508,2.461,2.461,0,0,1,1.107-1.48,1.958,1.958,0,0,1,2.2.235,1.815,1.815,0,0,1-.476,3.22c5.777,4.042,7.491,10.263,7.2,16.885a.157.157,0,0,1-.086.137.164.164,0,0,1-.167,0c-5.562-3.215-13.418-2.482-18.278.716a.167.167,0,0,1-.161.013.15.15,0,0,1-.094-.13c-.371-3.019,3.525-5.3.844-6.744-1.222-.658-1.3-.375-2.445-.283Zm3-6.985a.182.182,0,0,0-.094.085.156.156,0,0,0-.005.13c.406,1.036,1.351.711,1.87-.048a.15.15,0,0,0,.016-.153.157.157,0,0,0-.124-.1A3.16,3.16,0,0,0,604.937,64.222Z" fill="#70706f" fill-rule="evenodd"/>
      <g id="Сгруппировать_355" data-name="Сгруппировать 355">
        <path id="Контур_59304" data-name="Контур 59304" d="M568.188,91.912h-3.877V83.2h3.444a5.106,5.106,0,0,1,1.553.211,2.112,2.112,0,0,1,1.574,2.094,1.77,1.77,0,0,1-.672,1.52,2.115,2.115,0,0,1-.317.217q-.085.044-.314.143a2.34,2.34,0,0,1,1.308.73,2.008,2.008,0,0,1,.489,1.375,2.326,2.326,0,0,1-.631,1.607A3.338,3.338,0,0,1,568.188,91.912Zm-1.9-5.182h.938a3.226,3.226,0,0,0,1.222-.174.734.734,0,0,0,.4-.753.777.777,0,0,0-.368-.767,2.955,2.955,0,0,0-1.241-.188h-.951Zm0,3.537h1.357a3.013,3.013,0,0,0,1.271-.206.812.812,0,0,0,.424-.809.775.775,0,0,0-.449-.8,3.957,3.957,0,0,0-1.437-.193h-1.166Z" fill="#3a3a3a"/>
        <path id="Контур_59305" data-name="Контур 59305" d="M580.869,83.2v1.732h-4.4v1.8h3.96v1.658h-3.96v1.806h4.543v1.718h-6.521V83.2Z" fill="#3a3a3a"/>
        <path id="Контур_59306" data-name="Контур 59306" d="M590.528,91.912l-.825-1.882h-3.71l-.82,1.882h-2.1l3.821-8.708h1.913l3.823,8.708Zm-2.671-6.117-1.115,2.53h2.217Z" fill="#3a3a3a"/>
        <path id="Контур_59307" data-name="Контур 59307" d="M602.288,86.093a2.563,2.563,0,0,1-1.685,2.7l2.241,3.114h-2.429l-1.964-2.778h-1.37v2.778h-1.972V83.2h3.353a4.884,4.884,0,0,1,2.945.685A2.619,2.619,0,0,1,602.288,86.093ZM599.9,87.129a1.3,1.3,0,0,0,.368-1.031,1.1,1.1,0,0,0-.379-.965,2.491,2.491,0,0,0-1.33-.259h-1.483v2.578h1.445A2.158,2.158,0,0,0,599.9,87.129Z" fill="#3a3a3a"/>
        <path id="Контур_59308" data-name="Контур 59308" d="M609.639,91.912h-3.872V83.2h3.442a5.082,5.082,0,0,1,1.553.211,2.112,2.112,0,0,1,1.574,2.094,1.77,1.77,0,0,1-.672,1.52,2.473,2.473,0,0,1-.314.217c-.062.029-.167.077-.317.143a2.347,2.347,0,0,1,1.311.73,2.019,2.019,0,0,1,.486,1.375A2.3,2.3,0,0,1,612.2,91.1,3.33,3.33,0,0,1,609.639,91.912Zm-1.9-5.182h.938a3.236,3.236,0,0,0,1.223-.174.732.732,0,0,0,.4-.753.78.78,0,0,0-.365-.767,2.978,2.978,0,0,0-1.244-.188h-.948Zm0,3.537H609.1a3.045,3.045,0,0,0,1.274-.206.812.812,0,0,0,.424-.809.781.781,0,0,0-.451-.8,3.931,3.931,0,0,0-1.435-.193h-1.166Z" fill="#3a3a3a"/>
        <path id="Контур_59309" data-name="Контур 59309" d="M623.121,86.093a2.565,2.565,0,0,1-1.682,2.7l2.241,3.114h-2.432l-1.964-2.778h-1.368v2.778h-1.975V83.2H619.3a4.883,4.883,0,0,1,2.945.685A2.633,2.633,0,0,1,623.121,86.093Zm-2.38,1.036a1.312,1.312,0,0,0,.368-1.031,1.092,1.092,0,0,0-.382-.965,2.486,2.486,0,0,0-1.327-.259h-1.483v2.578h1.443A2.167,2.167,0,0,0,620.741,87.129Z" fill="#3a3a3a"/>
        <path id="Контур_59310" data-name="Контур 59310" d="M632.906,91.912l-.822-1.882h-3.71l-.825,1.882h-2.1l3.823-8.708h1.913l3.823,8.708Zm-2.671-6.117-1.115,2.53h2.214Z" fill="#3a3a3a"/>
        <path id="Контур_59311" data-name="Контур 59311" d="M643.678,83.2h1.977v8.708h-1.977l-4.216-5.456v5.456h-1.975V83.2h1.848l4.342,5.607Z" fill="#3a3a3a"/>
        <path id="Контур_59312" data-name="Контур 59312" d="M656.047,84.343a4.055,4.055,0,0,1,1.263,3.172,4.247,4.247,0,0,1-1.233,3.212,5.258,5.258,0,0,1-3.767,1.184h-3.025V83.2h3.127A5.268,5.268,0,0,1,656.047,84.343ZM654.6,89.519a2.539,2.539,0,0,0,.728-1.956,2.6,2.6,0,0,0-.728-1.972,3.14,3.14,0,0,0-2.235-.693h-1.1v5.3h1.252A2.963,2.963,0,0,0,654.6,89.519Z" fill="#3a3a3a"/>
      </g>
      <g id="Сгруппировать_356" data-name="Сгруппировать 356">
        <path id="Контур_59313" data-name="Контур 59313" d="M581.028,99.192a.06.06,0,0,1-.067.069h-1.013v.8h.776a.061.061,0,0,1,.064.066v.4a.062.062,0,0,1-.064.069h-.776v.806h1.013c.051,0,.067.019.067.063v.4c0,.04-.016.063-.067.063h-1.491a.058.058,0,0,1-.062-.063V98.793a.058.058,0,0,1,.062-.063h1.491c.051,0,.067.024.067.063Z" fill="#70706f"/>
        <path id="Контур_59314" data-name="Контур 59314" d="M584.77,98.73a.519.519,0,0,1,.586.576v.423a.058.058,0,0,1-.065.063h-.422a.06.06,0,0,1-.064-.063v-.315a.141.141,0,0,0-.161-.159h-.2a.145.145,0,0,0-.161.159v.553l.965.312a.144.144,0,0,1,.1.148v.923a.518.518,0,0,1-.586.574h-.454a.52.52,0,0,1-.583-.574v-.42a.057.057,0,0,1,.064-.063h.422c.046,0,.067.019.067.063v.307a.144.144,0,0,0,.161.161h.2a.143.143,0,0,0,.161-.161v-.529l-.962-.312a.143.143,0,0,1-.11-.148v-.941a.521.521,0,0,1,.583-.576Z" fill="#70706f"/>
        <path id="Контур_59315" data-name="Контур 59315" d="M589.582,98.73a.058.058,0,0,1,.067.063v.4a.058.058,0,0,1-.067.063h-.47v2.6c0,.045-.019.063-.065.063h-.422c-.043,0-.065-.019-.065-.063v-2.6h-.47a.06.06,0,0,1-.067-.063v-.4a.06.06,0,0,1,.067-.063Z" fill="#70706f"/>
        <path id="Контур_59316" data-name="Контур 59316" d="M593.556,101.923a.058.058,0,0,1-.065-.056l-.116-.582h-.72l-.11.582a.061.061,0,0,1-.065.056h-.435c-.043,0-.065-.024-.051-.069l.674-3.069a.06.06,0,0,1,.067-.056h.564a.063.063,0,0,1,.07.056l.674,3.069c.005.045-.008.069-.059.069Zm-.54-2.5-.258,1.393h.519Z" fill="#70706f"/>
        <path id="Контур_59317" data-name="Контур 59317" d="M598.459,100.038a.287.287,0,0,1-.258.283v.008a.292.292,0,0,1,.258.286v.735a.522.522,0,0,1-.591.574H596.9a.059.059,0,0,1-.064-.063V98.793a.058.058,0,0,1,.064-.063h.973a.523.523,0,0,1,.591.576Zm-.54-.624a.143.143,0,0,0-.164-.159h-.368v.806h.368a.144.144,0,0,0,.164-.153Zm0,1.335a.143.143,0,0,0-.164-.159h-.368v.806h.368a.145.145,0,0,0,.164-.161Z" fill="#70706f"/>
        <path id="Контур_59318" data-name="Контур 59318" d="M601.839,101.4h.964a.059.059,0,0,1,.067.063v.4c0,.045-.021.063-.067.063h-1.451a.057.057,0,0,1-.065-.063V98.793a.059.059,0,0,1,.065-.063h.419c.048,0,.067.024.067.063Z" fill="#70706f"/>
        <path id="Контур_59319" data-name="Контур 59319" d="M606.106,98.73a.06.06,0,0,1,.065.063v3.067a.06.06,0,0,1-.065.063h-.422a.058.058,0,0,1-.067-.063V98.793a.058.058,0,0,1,.067-.063Z" fill="#70706f"/>
        <path id="Контур_59320" data-name="Контур 59320" d="M610.039,98.73a.517.517,0,0,1,.58.576v.423a.056.056,0,0,1-.062.063h-.422a.062.062,0,0,1-.067-.063v-.315a.141.141,0,0,0-.161-.159h-.193a.147.147,0,0,0-.164.159v.553l.965.312a.141.141,0,0,1,.1.148v.923a.516.516,0,0,1-.58.574h-.457a.519.519,0,0,1-.583-.574v-.42a.056.056,0,0,1,.062-.063h.427c.04,0,.062.019.062.063v.307a.146.146,0,0,0,.164.161h.193a.143.143,0,0,0,.161-.161v-.529l-.959-.312a.145.145,0,0,1-.11-.148v-.941a.52.52,0,0,1,.583-.576Z" fill="#70706f"/>
        <path id="Контур_59321" data-name="Контур 59321" d="M614.524,98.793a.058.058,0,0,1,.064-.063H615c.051,0,.073.024.073.063v3.067c0,.04-.021.063-.073.063h-.416a.058.058,0,0,1-.064-.063v-1.269H614v1.269a.059.059,0,0,1-.065.063h-.416c-.051,0-.07-.024-.07-.063V98.793c0-.04.019-.063.07-.063h.416a.059.059,0,0,1,.065.063v1.269h.521Z" fill="#70706f"/>
        <path id="Контур_59322" data-name="Контур 59322" d="M619.524,99.192c0,.04-.016.069-.064.069h-1.013v.8h.774a.061.061,0,0,1,.064.066v.4a.062.062,0,0,1-.064.069h-.774v.806h1.013c.048,0,.064.019.064.063v.4c0,.04-.016.063-.064.063h-1.494a.058.058,0,0,1-.062-.063V98.793a.058.058,0,0,1,.062-.063h1.494c.048,0,.064.024.064.063Z" fill="#70706f"/>
        <path id="Контур_59323" data-name="Контур 59323" d="M622.312,98.793a.056.056,0,0,1,.062-.063h.978a.522.522,0,0,1,.583.579v2.041a.518.518,0,0,1-.583.574h-.978c-.043,0-.062-.019-.062-.063Zm.924,2.6a.143.143,0,0,0,.161-.161V99.42a.145.145,0,0,0-.161-.164h-.373V101.4Z" fill="#70706f"/>
        <path id="Контур_59324" data-name="Контур 59324" d="M628.6,98.73a.06.06,0,0,1,.065.063v3.067a.06.06,0,0,1-.065.063h-.422a.056.056,0,0,1-.064-.063V99.335l-.253.032a.067.067,0,0,1-.086-.071v-.383a.075.075,0,0,1,.078-.085Z" fill="#70706f"/>
        <path id="Контур_59325" data-name="Контур 59325" d="M632.106,100.689a.5.5,0,0,1-.57-.558v-.843a.506.506,0,0,1,.57-.558h.484a.506.506,0,0,1,.57.558v1.026a.517.517,0,0,1-.04.2l-.575,1.348a.092.092,0,0,1-.1.061h-.422c-.059,0-.083-.034-.059-.09l.489-1.145Zm.126-1.433a.144.144,0,0,0-.161.159V100a.144.144,0,0,0,.161.159h.228a.146.146,0,0,0,.164-.159v-.59a.146.146,0,0,0-.164-.159Z" fill="#70706f"/>
        <path id="Контур_59326" data-name="Контур 59326" d="M636.558,100.689a.5.5,0,0,1-.57-.558v-.843a.506.506,0,0,1,.57-.558h.484a.506.506,0,0,1,.57.558v1.026a.515.515,0,0,1-.04.2L637,101.862a.089.089,0,0,1-.094.061h-.424c-.059,0-.083-.034-.059-.09l.492-1.145Zm.129-1.433a.146.146,0,0,0-.164.159V100a.146.146,0,0,0,.164.159h.228a.144.144,0,0,0,.161-.159v-.59a.144.144,0,0,0-.161-.159Z" fill="#70706f"/>
        <path id="Контур_59327" data-name="Контур 59327" d="M641.265,98.73a.06.06,0,0,1,.064.063v3.067a.06.06,0,0,1-.064.063h-.422a.057.057,0,0,1-.065-.063V99.335l-.253.032a.067.067,0,0,1-.086-.071v-.383a.074.074,0,0,1,.075-.085Z" fill="#70706f"/>
      </g>
    </g>
  </g>
</svg>
