<svg xmlns="http://www.w3.org/2000/svg" width="79" height="76" viewBox="0 0 79 76">
  <g id="Vector_Smart_Object" data-name="Vector Smart Object" transform="translate(-195.404 -473.707)">
    <g id="Сгруппировать_363" data-name="Сгруппировать 363">
      <path id="Контур_59328" data-name="Контур 59328" d="M234.9,475.1l-38.048,36.605,38.048,36.6,38.047-36.6L234.9,475.1Zm-39.137,36.256,38.774-37.3.363-.347.363.347,38.774,37.3.363.349-.363.347-38.774,37.3-.363.349-.363-.349-38.774-37.3-.363-.347Z" fill="#3a3a3a"/>
      <path id="Контур_59329" data-name="Контур 59329" d="M234.9,477.029l-36.046,34.677L234.9,546.384l36.046-34.677L234.9,477.029Zm-36.476,34.539,36.332-34.955.144-.136.144.136,36.329,34.955.144.139-.144.133-36.329,34.955-.144.139-.144-.139L198.429,511.84l-.144-.133Z" fill="#70706f"/>
      <g id="Сгруппировать_358" data-name="Сгруппировать 358">
        <path id="Контур_59330" data-name="Контур 59330" d="M214.872,503.9a.118.118,0,0,1,.064-.176l.809-.368a.126.126,0,0,1,.191.059l2.852,5.789c.036.075.019.139-.075.181l-.807.368a.131.131,0,0,1-.186-.061l-1.181-2.4-1,.456,1.181,2.4a.122.122,0,0,1-.067.176l-.809.368a.127.127,0,0,1-.191-.059l-2.852-5.792c-.036-.072-.019-.133.075-.179l.807-.368a.129.129,0,0,1,.186.064l1.181,2.395,1-.456Z" fill="#3a3a3a"/>
        <path id="Контур_59331" data-name="Контур 59331" d="M219.637,501.947a.13.13,0,0,1,.177.085l2.168,6.053a.122.122,0,0,1-.086.171l-.851.283a.126.126,0,0,1-.177-.083L218.7,502.4a.116.116,0,0,1,.086-.168Z" fill="#3a3a3a"/>
        <path id="Контур_59332" data-name="Контур 59332" d="M222.652,501.189a.121.121,0,0,1,.105-.157l2.032-.44a1.116,1.116,0,0,1,1.491.909l.463,1.984a1.079,1.079,0,0,1-.942,1.435l-1.015.221.48,2.048a.124.124,0,0,1-.108.163l-.879.189a.126.126,0,0,1-.164-.1Zm2.625,2.715a.3.3,0,0,0,.263-.4l-.358-1.531a.309.309,0,0,0-.416-.253l-.743.163.51,2.179Z" fill="#3a3a3a"/>
        <path id="Контур_59333" data-name="Контур 59333" d="M231.179,499.7a1.108,1.108,0,0,1,1.355,1.093l.078.88a.121.121,0,0,1-.125.147l-.9.075a.127.127,0,0,1-.15-.123l-.058-.645a.3.3,0,0,0-.377-.3l-.413.032a.309.309,0,0,0-.316.363l.1,1.147,2.115.475a.311.311,0,0,1,.252.291l.175,1.92a1.091,1.091,0,0,1-1.137,1.3l-.967.08a1.112,1.112,0,0,1-1.353-1.093l-.078-.872a.124.124,0,0,1,.125-.147l.9-.072c.094-.008.141.029.15.12l.058.64a.3.3,0,0,0,.374.3l.416-.029a.3.3,0,0,0,.316-.365l-.1-1.1-2.107-.477a.3.3,0,0,1-.261-.288l-.177-1.963a1.09,1.09,0,0,1,1.137-1.3Z" fill="#3a3a3a"/>
        <path id="Контур_59334" data-name="Контур 59334" d="M238.43,499.669a.121.121,0,0,1,.133.139l-.033.829a.124.124,0,0,1-.144.131l-1-.04-.222,5.432c0,.093-.05.133-.144.128l-.9-.029a.124.124,0,0,1-.133-.141l.219-5.432-1-.037a.128.128,0,0,1-.133-.141l.033-.829a.125.125,0,0,1,.144-.128Z" fill="#3a3a3a"/>
        <path id="Контур_59335" data-name="Контур 59335" d="M244.6,501.469a.125.125,0,0,1-.161.117l-2.134-.349-.294,1.64,1.633.272a.122.122,0,0,1,.111.16l-.144.813a.132.132,0,0,1-.161.12l-1.633-.272-.294,1.661,2.134.352c.1.016.13.064.114.155l-.144.821a.121.121,0,0,1-.161.109l-3.143-.517a.121.121,0,0,1-.105-.155l1.12-6.312a.125.125,0,0,1,.152-.109l3.143.517c.1.016.128.072.114.155Z" fill="#3a3a3a"/>
        <path id="Контур_59336" data-name="Контур 59336" d="M250.053,505.3a1.113,1.113,0,0,1-.948.869l-.111,2.256c-.006.1-.069.136-.161.107l-.862-.259a.13.13,0,0,1-.1-.155l.105-2.187-.568-.173-.657,2a.129.129,0,0,1-.175.088l-.859-.259a.125.125,0,0,1-.091-.171l2-6.109a.131.131,0,0,1,.175-.085l2.076.627a1.072,1.072,0,0,1,.815,1.507Zm-1.486-.344a.315.315,0,0,0,.435-.219l.488-1.493a.3.3,0,0,0-.227-.419l-.818-.248-.7,2.131Z" fill="#3a3a3a"/>
        <path id="Контур_59337" data-name="Контур 59337" d="M255.935,504.211a1.063,1.063,0,0,1,.6,1.6l-.394.8a.129.129,0,0,1-.186.064l-.815-.373a.123.123,0,0,1-.067-.179l.288-.587a.29.29,0,0,0-.164-.445l-.374-.171a.319.319,0,0,0-.463.16l-.513,1.04,1.574,1.437a.3.3,0,0,1,.067.373l-.857,1.739a1.136,1.136,0,0,1-1.663.573l-.879-.4a1.064,1.064,0,0,1-.593-1.6l.391-.792a.125.125,0,0,1,.183-.064l.815.371a.114.114,0,0,1,.067.179l-.285.579a.3.3,0,0,0,.166.445l.377.173a.311.311,0,0,0,.46-.16l.493-1-1.566-1.435a.288.288,0,0,1-.075-.376l.876-1.776a1.139,1.139,0,0,1,1.663-.573Z" fill="#3a3a3a"/>
      </g>
      <path id="Контур_59338" data-name="Контур 59338" d="M239.226,511.069h1.314a.423.423,0,1,1,0,.845h-1.314a.423.423,0,1,1,0-.845Zm1.752,11.381a.864.864,0,0,0,.876-.845v-1.051h-.876a1.111,1.111,0,0,1-.773-.312,1.031,1.031,0,0,1-.322-.741v-4.219a1.031,1.031,0,0,1,.322-.741,1.121,1.121,0,0,1,.773-.309h.876v-1.056a.863.863,0,0,0-.876-.84h-2.445l-1.624-1.563a.456.456,0,0,0-.31-.125h-3.5a.463.463,0,0,0-.313.125l-1.622,1.563h-2.448a.863.863,0,0,0-.876.84v1.056h.876a1.116,1.116,0,0,1,.773.309,1.02,1.02,0,0,1,.322.741V519.5a1.02,1.02,0,0,1-.322.741,1.106,1.106,0,0,1-.773.312h-.876v1.051a.864.864,0,0,0,.876.845Zm-6.132-8.429a3.373,3.373,0,1,1-3.506,3.373,3.438,3.438,0,0,1,3.506-3.373Zm0,5.48a2.111,2.111,0,1,1,2.19-2.107,2.15,2.15,0,0,1-2.19,2.107Zm0-5.059a2.952,2.952,0,1,1-3.069,2.952,3.009,3.009,0,0,1,3.069-2.952Zm-7.01,5.691v-5.48h.876a.662.662,0,0,1,.466.187.609.609,0,0,1,.191.443V519.5a.619.619,0,0,1-.191.445.674.674,0,0,1-.466.187Zm14.018,0h-.876a.667.667,0,0,1-.463-.187.622.622,0,0,1-.194-.445v-4.219a.612.612,0,0,1,.194-.443.655.655,0,0,1,.463-.187h.876v5.48Zm-12.7-9.064h1.317a.423.423,0,1,1,0,.845H229.15a.423.423,0,1,1,0-.845Z" fill="#3a3a3a" fill-rule="evenodd"/>
      <path id="Контур_59339" data-name="Контур 59339" d="M236.052,535.427a.047.047,0,0,0-.044-.032H235.2l-.249-.739a.047.047,0,0,0-.044-.032.048.048,0,0,0-.047.032l-.247.739H233.8a.047.047,0,0,0-.044.032.041.041,0,0,0,.017.051l.654.459-.252.739a.047.047,0,0,0,.019.053.053.053,0,0,0,.055-.005l.654-.456.651.456.03.011.028-.005a.046.046,0,0,0,.017-.053l-.252-.739.657-.459A.045.045,0,0,0,236.052,535.427Z" fill="#70706f"/>
      <path id="Контур_59340" data-name="Контур 59340" d="M249.837,516.859a.16.16,0,0,0-.136-.08H248.03l.324-1.483a.143.143,0,0,0-.089-.16.152.152,0,0,0-.18.048l-1.8,2.376a.134.134,0,0,0-.011.149.148.148,0,0,0,.13.08h1.674l-.322,1.483a.141.141,0,0,0,.086.157.12.12,0,0,0,.061.013.152.152,0,0,0,.119-.059l1.8-2.376a.14.14,0,0,0,.014-.149Zm-29.865,0a.152.152,0,0,1,.133-.08h1.671l-.322-1.483a.144.144,0,0,1,.086-.16.156.156,0,0,1,.183.048l1.8,2.376a.145.145,0,0,1,.011.149.152.152,0,0,1-.133.08h-1.671l.322,1.483a.141.141,0,0,1-.086.157.126.126,0,0,1-.061.013.153.153,0,0,1-.122-.059l-1.8-2.376A.145.145,0,0,1,219.972,516.859Z" fill="#70706f" fill-rule="evenodd"/>
      <g id="Сгруппировать_359" data-name="Сгруппировать 359">
        <path id="Контур_59341" data-name="Контур 59341" d="M232.169,491.944v2.819l.225.155v.168h-.99v-.168l.225-.155v-2.819h-.383l-.164.565h-.247l.022-.877h2.082l.022.877h-.247l-.172-.565Z" fill="#70706f"/>
        <path id="Контур_59342" data-name="Контур 59342" d="M233.884,491.776v-.144h.906v.144l-.194.128v1.28h.829V491.9l-.194-.128v-.144h.9v.144l-.194.128v2.92l.23.115v.147h-.97v-.147l.225-.115v-1.357H234.6v1.357l.23.115v.147h-.979v-.147l.23-.115V491.9Z" fill="#70706f"/>
        <path id="Контур_59343" data-name="Контур 59343" d="M237.164,495.085v-.147l.23-.144v-2.907l-.194-.125v-.131h1.821v.773h-.255l-.144-.48h-.7v1.293h.491l.133-.272h.155v.832h-.155l-.133-.261h-.491v1.088a.136.136,0,0,1-.108.155v.024h.87l.175-.475h.225v.776Z" fill="#70706f"/>
      </g>
      <g id="Сгруппировать_362" data-name="Сгруппировать 362">
        <g id="Сгруппировать_360" data-name="Сгруппировать 360">
          <path id="Контур_59344" data-name="Контур 59344" d="M224.587,528.152l-.191-.432h-.868l-.191.432h-.491l.893-1.992h.446l.9,1.992Zm-.624-1.4-.261.579h.518Z" fill="#3a3a3a"/>
          <path id="Контур_59345" data-name="Контур 59345" d="M228.243,526.9l-.56,1.088h-.274l-.557-1.088v1.253h-.463V526.16h.626l.532,1.1.538-1.1h.621v1.992h-.463Z" fill="#3a3a3a"/>
          <path id="Контур_59346" data-name="Контур 59346" d="M231.778,526.16v.395h-1.031v.411h.929v.381h-.929v.411h1.064v.395h-1.525V526.16Z" fill="#3a3a3a"/>
          <path id="Контур_59347" data-name="Контур 59347" d="M234.971,526.821a.585.585,0,0,1-.394.619l.524.712h-.568l-.46-.637h-.319v.637h-.463V526.16h.784a1.137,1.137,0,0,1,.687.157A.589.589,0,0,1,234.971,526.821Zm-.557.235a.284.284,0,0,0,.086-.232.252.252,0,0,0-.089-.221.589.589,0,0,0-.31-.061h-.346v.592h.338A.5.5,0,0,0,234.414,527.056Z" fill="#3a3a3a"/>
          <path id="Контур_59348" data-name="Контур 59348" d="M236.515,526.16h.46v1.992h-.46Z" fill="#3a3a3a"/>
          <path id="Контур_59349" data-name="Контур 59349" d="M239.506,527.757a.687.687,0,0,0,.554-.256l.3.293a1.148,1.148,0,0,1-1.616.088.953.953,0,0,1-.31-.731.975.975,0,0,1,.316-.741,1.083,1.083,0,0,1,.771-.3,1.116,1.116,0,0,1,.854.373l-.288.315a.678.678,0,0,0-.546-.264.645.645,0,0,0-.444.165.555.555,0,0,0-.186.44.593.593,0,0,0,.175.448A.587.587,0,0,0,239.506,527.757Z" fill="#3a3a3a"/>
          <path id="Контур_59350" data-name="Контур 59350" d="M243.251,528.152l-.191-.432h-.868l-.191.432h-.493l.9-1.992h.446l.9,1.992Zm-.624-1.4-.261.579h.518Z" fill="#3a3a3a"/>
          <path id="Контур_59351" data-name="Контур 59351" d="M246.5,526.16h.46v1.992h-.46l-.987-1.248v1.248h-.463V526.16h.432l1.017,1.283Z" fill="#3a3a3a"/>
        </g>
        <g id="Сгруппировать_361" data-name="Сгруппировать 361">
          <path id="Контур_59352" data-name="Контур 59352" d="M228.512,531.773h-.906v-1.992h.8a1.2,1.2,0,0,1,.363.048.5.5,0,0,1,.23.131.5.5,0,0,1,.139.347.405.405,0,0,1-.155.349.85.85,0,0,1-.075.051l-.072.029a.556.556,0,0,1,.3.168.46.46,0,0,1,.114.315.528.528,0,0,1-.147.368A.792.792,0,0,1,228.512,531.773Zm-.444-1.187h.219a.774.774,0,0,0,.286-.04.167.167,0,0,0,.094-.171.174.174,0,0,0-.089-.176.722.722,0,0,0-.288-.043h-.222Zm0,.808h.316a.712.712,0,0,0,.3-.045.186.186,0,0,0,.1-.187.176.176,0,0,0-.105-.181.875.875,0,0,0-.335-.043h-.272Z" fill="#3a3a3a"/>
          <path id="Контур_59353" data-name="Контур 59353" d="M232.4,530.44a.593.593,0,0,1-.394.621l.524.712h-.568l-.46-.635h-.322v.635h-.46v-1.992h.784a1.172,1.172,0,0,1,.69.157A.593.593,0,0,1,232.4,530.44Zm-.557.24a.3.3,0,0,0,.086-.237.255.255,0,0,0-.089-.221.6.6,0,0,0-.313-.059h-.346v.589h.338A.525.525,0,0,0,231.839,530.68Z" fill="#3a3a3a"/>
          <path id="Контур_59354" data-name="Контур 59354" d="M235.414,531.773l-.194-.432h-.868l-.191.432h-.493l.9-1.992h.446l.9,1.992Zm-.626-1.4-.261.576h.518Z" fill="#3a3a3a"/>
          <path id="Контур_59355" data-name="Контур 59355" d="M238.663,529.781h.463v1.992h-.463l-.987-1.251v1.251h-.463v-1.992h.432l1.017,1.28Z" fill="#3a3a3a"/>
          <path id="Контур_59356" data-name="Контур 59356" d="M242.283,530.043a.912.912,0,0,1,.3.723.977.977,0,0,1-.288.739,1.264,1.264,0,0,1-.881.269H240.7v-1.992h.732A1.231,1.231,0,0,1,242.283,530.043Zm-.338,1.184a.576.576,0,0,0,.169-.448.588.588,0,0,0-.169-.453.756.756,0,0,0-.524-.155h-.258v1.208h.294A.706.706,0,0,0,241.945,531.227Z" fill="#3a3a3a"/>
        </g>
      </g>
    </g>
  </g>
</svg>
