<svg xmlns="http://www.w3.org/2000/svg" width="56" height="69" viewBox="0 0 56 69">
  <g id="Vector_Smart_Object" data-name="Vector Smart Object" transform="translate(-1109.797 -49.914)">
    <g id="Сгруппировать_368" data-name="Сгруппировать 368">
      <g id="Сгруппировать_366" data-name="Сгруппировать 366">
        <g id="Сгруппировать_364" data-name="Сгруппировать 364">
          <path id="Контур_59357" data-name="Контур 59357" d="M1119.93,86.861h2.845V98.79h-2.845V94.1h-5.073V98.79h-2.845V86.861h2.845v4.983h5.073Z" fill="#3a3a3a"/>
        </g>
        <g id="Сгруппировать_365" data-name="Сгруппировать 365">
          <path id="Контур_59358" data-name="Контур 59358" d="M1162.308,86.861h2.845V98.79h-2.845V94.1h-5.076V98.79h-2.845V86.861h2.845v4.983h5.076Z" fill="#3a3a3a"/>
        </g>
      </g>
      <g id="Сгруппировать_367" data-name="Сгруппировать 367">
        <path id="Контур_59359" data-name="Контур 59359" d="M1136.661,109.231a1,1,0,0,0-.411.836.932.932,0,0,0,.5.829,9.594,9.594,0,0,0,2.316.724,6.737,6.737,0,0,1,2.818,1.255,2.99,2.99,0,0,1,1,2.438,3.151,3.151,0,0,1-1.287,2.6,5.37,5.37,0,0,1-3.383,1,8.127,8.127,0,0,1-5.454-2.1l1.7-1.945a6.225,6.225,0,0,0,3.814,1.688,2.112,2.112,0,0,0,1.232-.316.993.993,0,0,0,.444-.852.974.974,0,0,0-.475-.854,6.4,6.4,0,0,0-1.877-.639,8.517,8.517,0,0,1-3.26-1.288,2.948,2.948,0,0,1-1.029-2.492,3.02,3.02,0,0,1,1.306-2.62,5.505,5.505,0,0,1,3.254-.919,8.358,8.358,0,0,1,2.557.408,6.985,6.985,0,0,1,2.225,1.16l-1.443,1.945a5.853,5.853,0,0,0-3.43-1.178A1.791,1.791,0,0,0,1136.661,109.231Z" fill="#3a3a3a"/>
      </g>
      <path id="Контур_59360" data-name="Контур 59360" d="M1111.348,66.724l5.77,2.127a.244.244,0,0,1,.159.254.256.256,0,0,1-.2.228l-2.67.724L1137.8,91.929l23.39-21.872-2.672-.724a.254.254,0,0,1-.195-.228.244.244,0,0,1,.159-.254l5.767-2.127a3.878,3.878,0,0,1,.933-.293.6.6,0,0,1,.442.167.522.522,0,0,1,.176.413,3.329,3.329,0,0,1-.31.872l-2.277,5.394a.27.27,0,0,1-.272.149.266.266,0,0,1-.244-.185l-.771-2.5-23.387,21.872,18.706,17.494,2.489-.685a1.08,1.08,0,0,1,1.037.249l4.906,4.588a.361.361,0,0,1,.11.375.391.391,0,0,1-.285.28l-2.409.665.875.819a.464.464,0,0,1,0,.688.537.537,0,0,1-.733,0l-.881-.819-.705,2.25a.393.393,0,0,1-.3.269.423.423,0,0,1-.4-.1l-4.906-4.588a.913.913,0,0,1-.266-.97l.73-2.327L1137.8,93.3l-18.706,17.5.733,2.327a.922.922,0,0,1-.266.97l-4.9,4.588a.435.435,0,0,1-.4.1.389.389,0,0,1-.3-.269l-.708-2.25-.878.819a.54.54,0,0,1-.735,0,.464.464,0,0,1,0-.688l.875-.819-2.409-.665a.4.4,0,0,1-.285-.28.366.366,0,0,1,.11-.375l4.906-4.588a1.085,1.085,0,0,1,1.04-.249l2.486.685,18.709-17.494-23.39-21.872-.771,2.5a.266.266,0,0,1-.244.185.27.27,0,0,1-.272-.149l-2.275-5.394a3.248,3.248,0,0,1-.313-.872.531.531,0,0,1,.176-.413.6.6,0,0,1,.447-.167A3.879,3.879,0,0,1,1111.348,66.724Z" fill="#70706f" fill-rule="evenodd"/>
      <path id="Контур_59361" data-name="Контур 59361" d="M1143.972,64.291c.148-.1.294-.2.444-.3,1.257-.824,2.554-1.586,3.688-2.491a10.651,10.651,0,0,0,1.539-1.478,6.079,6.079,0,0,0,1.04-1.755,5,5,0,0,0,.307-1.863,6.333,6.333,0,0,0-.277-1.676,7.566,7.566,0,0,0-1.347-2.566,7.284,7.284,0,0,0-1.627-1.5,5.449,5.449,0,0,0-1.259-.644c-.307-.105-.483-.126-.5-.09-.044.09.573.357,1.44,1.1a7.781,7.781,0,0,1,1.347,1.524,7.265,7.265,0,0,1,1.056,2.389c.019.077.036.157.049.236a4.855,4.855,0,0,0-.917-.6c-.439-.226-.848-.39-1.21-.547a5.9,5.9,0,0,1-1.553-.854c-.307-.264-.431-.472-.5-.446s-.077.287.178.69a4.362,4.362,0,0,0,1.52,1.237c.351.2.735.4,1.108.634a3.306,3.306,0,0,1,.969.829,1.627,1.627,0,0,1,.266,1.175,5.2,5.2,0,0,1-2.4,3.349c-.178.136-.362.269-.549.4.041-.239.063-.467.088-.683a8.281,8.281,0,0,1,.359-2.076,5.133,5.133,0,0,1,.661-1.255c.2-.287.318-.452.274-.5s-.239.044-.535.282a3.851,3.851,0,0,0-.979,1.252,7.016,7.016,0,0,0-.593,2.2,6.3,6.3,0,0,1-.266,1.183c-.2.521-.793.742-1.29,1.049a5.562,5.562,0,0,0,.088-1.183,16.1,16.1,0,0,0-.165-1.655c-.069-.5-.123-.952-.145-1.36a8,8,0,0,1,.472-2.61c-.058-.046-.327.1-.648.526a3.909,3.909,0,0,0-.686,2.068c-.082.908.06,1.96.044,3.03a4.1,4.1,0,0,1-.307,1.545,3.235,3.235,0,0,1-1.314,1.419,5.051,5.051,0,0,0-.255-1.876c-.376-1.088-.922-1.593-1.034-1.524-.143.072.14.683.288,1.683a3.354,3.354,0,0,1-.694,3.133,4.69,4.69,0,0,0-1.333-.577,4.113,4.113,0,0,0-2.039,0,4.623,4.623,0,0,0-1.333.577,3.347,3.347,0,0,1-.694-3.133c.145-1,.428-1.611.285-1.683-.11-.069-.659.436-1.034,1.524a5,5,0,0,0-.252,1.876,3.241,3.241,0,0,1-1.317-1.419,4.094,4.094,0,0,1-.3-1.545c-.019-1.07.129-2.122.044-3.03a3.907,3.907,0,0,0-.689-2.068c-.321-.423-.59-.572-.647-.526a8,8,0,0,1,.472,2.61c-.019.408-.074.862-.146,1.36a15.459,15.459,0,0,0-.159,1.655,5.217,5.217,0,0,0,.085,1.183c-.5-.308-1.095-.529-1.289-1.049a5.885,5.885,0,0,1-.266-1.183,7.244,7.244,0,0,0-.59-2.2,3.854,3.854,0,0,0-.985-1.252c-.294-.239-.5-.321-.535-.282s.077.208.274.5a5.224,5.224,0,0,1,.664,1.255,8.544,8.544,0,0,1,.359,2.076c.022.216.047.444.088.683-.189-.131-.373-.264-.549-.4a5.215,5.215,0,0,1-2.4-3.349,1.616,1.616,0,0,1,.269-1.175,3.26,3.26,0,0,1,.966-.829c.373-.233.757-.434,1.108-.634a4.338,4.338,0,0,0,1.52-1.237c.255-.4.244-.675.181-.69s-.2.182-.5.446a5.93,5.93,0,0,1-1.556.854c-.362.157-.771.321-1.21.547a4.859,4.859,0,0,0-.916.6c.016-.08.03-.159.052-.236a7.207,7.207,0,0,1,1.054-2.389,7.773,7.773,0,0,1,1.347-1.524c.867-.742,1.484-1.008,1.44-1.1-.016-.036-.192-.015-.5.09a5.56,5.56,0,0,0-1.259.644,7.465,7.465,0,0,0-1.627,1.5,7.62,7.62,0,0,0-1.347,2.566,6.232,6.232,0,0,0-.274,1.676,4.939,4.939,0,0,0,.307,1.863,6.012,6.012,0,0,0,1.037,1.755,10.674,10.674,0,0,0,1.542,1.478c1.13.906,2.428,1.668,3.688,2.491l.444.3a6.8,6.8,0,0,0-3.729.321c.53,2.4,3.6,3.62,6.011,3a31,31,0,0,0-.9,3.872,9.847,9.847,0,0,1-3.364,5.712,23.162,23.162,0,0,0,8.151,6.9,23.138,23.138,0,0,0,8.151-6.9,9.857,9.857,0,0,1-3.361-5.712,31.491,31.491,0,0,0-.9-3.872c2.412.618,5.482-.6,6.011-3A6.79,6.79,0,0,0,1143.972,64.291Z" fill="#3a3a3a" fill-rule="evenodd"/>
    </g>
  </g>
</svg>
