<svg xmlns="http://www.w3.org/2000/svg" width="94.999" height="50" viewBox="0 0 94.999 50">
  <g id="Vector_Smart_Object" data-name="Vector Smart Object" transform="translate(-1073.912 -152.958)">
    <g id="Сгруппировать_371" data-name="Сгруппировать 371">
      <path id="Контур_59362" data-name="Контур 59362" d="M1077.524,192.006h86.638v.4h-86.638v-.4Zm0-20.848h86.638v.4h-86.638Z" fill="#70706f"/>
      <rect id="Прямоугольник_1" data-name="Прямоугольник 1" width="14.354" height="0.397" transform="translate(1113.667 195.775)" fill="#70706f"/>
      <path id="Контур_59363" data-name="Контур 59363" d="M1140.105,168.218a3.726,3.726,0,0,0,1.784.184,3.359,3.359,0,0,0,1.362-.486,2.049,2.049,0,0,0,.665-.675c.111-.189.127-.307.1-.322-.073-.04-.308.375-.957.7a3.482,3.482,0,0,1-1.227.335,3.619,3.619,0,0,1-1.53-.189,2.22,2.22,0,0,1-.622-.345,2.008,2.008,0,0,0,.481-.733,1.153,1.153,0,0,0,.076-.393,1.3,1.3,0,0,0-.054-.38.8.8,0,0,0-.205-.345.787.787,0,0,0-.792-.133.721.721,0,0,0-.338.3,1.457,1.457,0,0,0-.167.886,1.748,1.748,0,0,0,.351.843,2.108,2.108,0,0,1-.578.242,3.906,3.906,0,0,1-1.306.038,3,3,0,0,1-2.2-4.378,3.368,3.368,0,0,1,1.676-1.337,5.021,5.021,0,0,1,2.335-.262,5.834,5.834,0,0,1,1.827.5,8.611,8.611,0,0,1,1.578.959c.97.733,1.816,1.568,2.7,2.3a13.033,13.033,0,0,0,1.362,1.014,10.821,10.821,0,0,0,1.427.765,8.362,8.362,0,0,0,2.857.717,7,7,0,0,0,2.422-.252,6.149,6.149,0,0,0,1.649-.753c.83-.554,1.089-1.047,1.06-1.055a7.137,7.137,0,0,1-1.173.894,6.211,6.211,0,0,1-1.616.647,6.974,6.974,0,0,1-2.314.174,8.184,8.184,0,0,1-2.695-.74,10.4,10.4,0,0,1-1.354-.753,12.836,12.836,0,0,1-1.3-.994c-.859-.728-1.7-1.573-2.7-2.344a9.072,9.072,0,0,0-1.673-1.022,6.361,6.361,0,0,0-2-.546,5.523,5.523,0,0,0-2.595.3,3.838,3.838,0,0,0-1.919,1.548,3.428,3.428,0,0,0,2.579,5.007,4.116,4.116,0,0,0,.995.008,4.7,4.7,0,0,0,.476-.081,2.293,2.293,0,0,0,.449-.169,2.94,2.94,0,0,0,.281-.164,2.613,2.613,0,0,0,.824.481Zm-38.523,0a3.758,3.758,0,0,1-1.784.181,3.372,3.372,0,0,1-1.365-.486,2.076,2.076,0,0,1-.665-.675c-.108-.189-.124-.31-.095-.322.07-.04.308.375.957.7a3.432,3.432,0,0,0,1.224.335,3.631,3.631,0,0,0,1.533-.189,2.255,2.255,0,0,0,.622-.345,1.991,1.991,0,0,1-.486-.733,1.236,1.236,0,0,1-.016-.773.721.721,0,0,1,.995-.478.734.734,0,0,1,.338.3,1.419,1.419,0,0,1,.165.886,1.7,1.7,0,0,1-.349.843,2.018,2.018,0,0,0,.208.111,1.757,1.757,0,0,0,.373.131,3.542,3.542,0,0,0,.419.06,3.6,3.6,0,0,0,.884-.023,3,3,0,0,0,2.2-4.378,3.375,3.375,0,0,0-1.679-1.337,5.013,5.013,0,0,0-2.333-.262,5.812,5.812,0,0,0-1.83.5,8.589,8.589,0,0,0-1.576.959c-.973.733-1.819,1.568-2.7,2.3a13.28,13.28,0,0,1-1.36,1.014,11.189,11.189,0,0,1-1.43.765,8.363,8.363,0,0,1-2.854.717,6.932,6.932,0,0,1-2.422-.254,6.158,6.158,0,0,1-1.654-.75c-.824-.554-1.084-1.047-1.057-1.055a7.335,7.335,0,0,0,1.17.894,6.337,6.337,0,0,0,1.622.647,6.947,6.947,0,0,0,2.308.174,8.193,8.193,0,0,0,2.695-.74,10.619,10.619,0,0,0,1.357-.753,13.5,13.5,0,0,0,1.3-.994c.854-.728,1.695-1.573,2.7-2.344a8.964,8.964,0,0,1,1.67-1.022,6.366,6.366,0,0,1,2-.546,5.545,5.545,0,0,1,2.6.3,3.843,3.843,0,0,1,1.916,1.548,3.424,3.424,0,0,1-2.576,5,4,4,0,0,1-.995.01,4.474,4.474,0,0,1-.476-.081,2.316,2.316,0,0,1-.451-.169c-.1-.05-.192-.106-.281-.164a2.654,2.654,0,0,1-.822.483Zm-10.252-1.948a3.22,3.22,0,0,1-1.657-.035,1.7,1.7,0,0,1-1.038-.939,1.306,1.306,0,0,1,.076-1.2,1.113,1.113,0,0,1,.919-.541,1.076,1.076,0,0,1,.849.322.661.661,0,0,1,.135.629.849.849,0,0,1-.251.378c-.084.078-.132.116-.122.133s.073.005.187-.053a.857.857,0,0,0,.381-.4.894.894,0,0,0,.076-.393.872.872,0,0,0-.165-.463,1.365,1.365,0,0,0-1.095-.506,1.565,1.565,0,0,0-.716.164,1.493,1.493,0,0,0-.576.519,1.7,1.7,0,0,0-.27.743,1.744,1.744,0,0,0,.116.826,2.158,2.158,0,0,0,1.311,1.234,3.705,3.705,0,0,0,1.954.065,6.2,6.2,0,0,0,1.771-.662,14.305,14.305,0,0,0,1.416-.939c.857-.644,1.543-1.309,2.127-1.84a14.86,14.86,0,0,1,1.438-1.193c.359-.257.576-.383.557-.415s-.265.04-.67.257a9.617,9.617,0,0,0-1.581,1.1c-.622.506-1.327,1.133-2.176,1.739a14.884,14.884,0,0,1-1.376.881,6.042,6.042,0,0,1-1.619.594Zm10.933.9a1.438,1.438,0,0,0,.284-.607,1.2,1.2,0,0,0-.054-.662c-.254-.564-.965-.055-.643.682a1.651,1.651,0,0,0,.413.587Zm48.091-.9a3.232,3.232,0,0,0,1.66-.035,1.7,1.7,0,0,0,1.035-.939,1.315,1.315,0,0,0-.076-1.2,1.107,1.107,0,0,0-.916-.539,1.082,1.082,0,0,0-.854.32.673.673,0,0,0-.132.629.85.85,0,0,0,.251.378c.081.078.135.116.124.133s-.073.005-.187-.053a.836.836,0,0,1-.384-.4.894.894,0,0,1-.076-.393.849.849,0,0,1,.165-.463,1.371,1.371,0,0,1,1.1-.506,1.554,1.554,0,0,1,.714.164,1.512,1.512,0,0,1,.576.519,1.669,1.669,0,0,1,.27.743,1.743,1.743,0,0,1-.114.826,2.156,2.156,0,0,1-1.314,1.234,3.7,3.7,0,0,1-1.954.065,6.186,6.186,0,0,1-1.768-.662,13.432,13.432,0,0,1-1.416-.939c-.857-.644-1.543-1.309-2.127-1.84a14.843,14.843,0,0,0-1.438-1.193c-.362-.257-.578-.383-.559-.415s.265.04.673.257a9.725,9.725,0,0,1,1.578,1.1c.622.506,1.327,1.133,2.176,1.739a15.308,15.308,0,0,0,1.379.881,6.057,6.057,0,0,0,1.616.594Zm-10.931.9a1.429,1.429,0,0,1-.286-.607,1.2,1.2,0,0,1,.054-.662c.254-.564.962-.055.643.682A1.677,1.677,0,0,1,1139.424,167.17Z" fill="#70706f" fill-rule="evenodd"/>
      <g id="Сгруппировать_369" data-name="Сгруппировать 369">
        <path id="Контур_59364" data-name="Контур 59364" d="M1097.747,197.051l-.165.41-1.1-.38-.168.423.992.345-.16.393-.992-.345-.168.428,1.135.393-.162.408-1.633-.564.822-2.062Z" fill="#3a3a3a"/>
        <path id="Контур_59365" data-name="Контур 59365" d="M1099.842,198.169a.2.2,0,0,0-.124.123.174.174,0,0,0,.041.174,1.838,1.838,0,0,0,.368.249,1.119,1.119,0,0,1,.422.365.535.535,0,0,1,.035.481.629.629,0,0,1-.384.393,1.042,1.042,0,0,1-.657,0,1.441,1.441,0,0,1-.841-.652l.419-.254a1.079,1.079,0,0,0,.57.493.388.388,0,0,0,.238.008.187.187,0,0,0,.127-.126.176.176,0,0,0-.032-.176,1.173,1.173,0,0,0-.295-.209,1.478,1.478,0,0,1-.5-.4.528.528,0,0,1-.032-.491.579.579,0,0,1,.387-.393,1.045,1.045,0,0,1,.627.005,1.474,1.474,0,0,1,.427.206,1.173,1.173,0,0,1,.324.32l-.37.267a1.025,1.025,0,0,0-.535-.385A.334.334,0,0,0,1099.842,198.169Z" fill="#3a3a3a"/>
        <path id="Контур_59366" data-name="Контур 59366" d="M1103.591,199.155l-.481,1.717-.508-.123.481-1.717-.649-.156.114-.413,1.806.441-.114.41Z" fill="#3a3a3a"/>
        <path id="Контур_59367" data-name="Контур 59367" d="M1106.991,201.7l-.111-.506-.97-.186-.319.423-.549-.106,1.479-1.961.5.1.516,2.349Zm-.359-1.646-.432.569.581.111Z" fill="#3a3a3a"/>
        <path id="Контур_59368" data-name="Контур 59368" d="M1110.221,202.214l-1.019-.146.354-2.172.908.128a1.366,1.366,0,0,1,.4.111.585.585,0,0,1,.235.179.535.535,0,0,1,.1.4.461.461,0,0,1-.24.355.721.721,0,0,1-.092.043l-.089.023a.631.631,0,0,1,.316.232.475.475,0,0,1,.073.363.586.586,0,0,1-.232.378A.949.949,0,0,1,1110.221,202.214Zm-.432-.481.359.05a.839.839,0,0,0,.343-.005.207.207,0,0,0,.143-.186.186.186,0,0,0-.087-.214,1.078,1.078,0,0,0-.368-.1l-.311-.043Zm.146-.884.246.035a.958.958,0,0,0,.33,0,.185.185,0,0,0,.132-.176.191.191,0,0,0-.062-.2.842.842,0,0,0-.322-.093l-.249-.033Z" fill="#3a3a3a"/>
        <path id="Контур_59369" data-name="Контур 59369" d="M1112.906,202.541l.238-2.188.527.048-.192,1.755,1,.093-.046.436Z" fill="#3a3a3a"/>
        <path id="Контур_59370" data-name="Контур 59370" d="M1116.352,200.611l.522.03-.141,2.2-.524-.028Z" fill="#3a3a3a"/>
        <path id="Контур_59371" data-name="Контур 59371" d="M1119.3,201.167a.177.177,0,0,0-.081.154.165.165,0,0,0,.089.154,1.925,1.925,0,0,0,.427.141,1.25,1.25,0,0,1,.516.237.543.543,0,0,1,.178.456.578.578,0,0,1-.249.476,1,1,0,0,1-.63.174,1.522,1.522,0,0,1-1-.4l.322-.355a1.143,1.143,0,0,0,.7.322.389.389,0,0,0,.23-.053.178.178,0,0,0,.084-.156.176.176,0,0,0-.084-.159,1.172,1.172,0,0,0-.346-.123,1.56,1.56,0,0,1-.6-.249.533.533,0,0,1-.181-.461.552.552,0,0,1,.249-.481,1.015,1.015,0,0,1,.608-.159,1.512,1.512,0,0,1,.468.083,1.233,1.233,0,0,1,.411.222l-.273.352a1.1,1.1,0,0,0-.632-.227A.332.332,0,0,0,1119.3,201.167Z" fill="#3a3a3a"/>
        <path id="Контур_59372" data-name="Контур 59372" d="M1123.661,200.689l.524-.018.084,2.2-.527.018-.032-.866-.938.03.03.863-.527.018-.078-2.2.527-.018.032.921.941-.033Z" fill="#3a3a3a"/>
        <path id="Контур_59373" data-name="Контур 59373" d="M1127.764,200.419l.041.436-1.17.1.043.451,1.051-.086.041.418-1.054.086.043.453,1.208-.1.041.433-1.73.143-.211-2.193Z" fill="#3a3a3a"/>
        <path id="Контур_59374" data-name="Контур 59374" d="M1131.364,200.278a1.146,1.146,0,0,1,.254,1.6,1.4,1.4,0,0,1-.949.428l-.8.106-.335-2.175.824-.111A1.476,1.476,0,0,1,1131.364,200.278Zm-.184,1.347a.6.6,0,0,0,.119-.514.672.672,0,0,0-.268-.471.882.882,0,0,0-.616-.093l-.292.038.2,1.324.333-.045A.791.791,0,0,0,1131.18,201.625Z" fill="#3a3a3a"/>
        <path id="Контур_59375" data-name="Контур 59375" d="M1135.367,199.294l.932-.2.519,2.145-.5.1-.419-1.737-.438.093Z" fill="#3a3a3a"/>
        <path id="Контур_59376" data-name="Контур 59376" d="M1139.257,200.263a.414.414,0,0,0,.292-.216.668.668,0,0,0,.035-.4.85.85,0,0,1-.411.244.808.808,0,0,1-.592-.058.721.721,0,0,1-.362-.466.645.645,0,0,1,.076-.574.846.846,0,0,1,.519-.345,1,1,0,0,1,.443-.02.743.743,0,0,1,.351.171,1.5,1.5,0,0,1,.416.7,1.769,1.769,0,0,1,.073.531.962.962,0,0,1-.105.4.909.909,0,0,1-.576.418,1.051,1.051,0,0,1-.319.035,1.067,1.067,0,0,1-.246-.033c-.059-.015-.127-.04-.205-.068l.151-.4.076.033a1.059,1.059,0,0,0,.168.04A.56.56,0,0,0,1139.257,200.263Zm-.151-.783a.4.4,0,0,0,.227-.146.264.264,0,0,0,.035-.242.334.334,0,0,0-.162-.206.359.359,0,0,0-.276-.035.335.335,0,0,0-.211.149.29.29,0,0,0-.032.242.366.366,0,0,0,.154.206A.327.327,0,0,0,1139.105,199.48Z" fill="#3a3a3a"/>
        <path id="Контур_59377" data-name="Контур 59377" d="M1142.63,199.324a.405.405,0,0,0,.276-.229.621.621,0,0,0,.016-.4.855.855,0,0,1-.992.229.72.72,0,0,1-.389-.443.655.655,0,0,1,.046-.579.843.843,0,0,1,.5-.368.97.97,0,0,1,.441-.04.714.714,0,0,1,.359.154,1.481,1.481,0,0,1,.451.682,1.6,1.6,0,0,1,.1.529.865.865,0,0,1-.084.4.9.9,0,0,1-.549.448,1.06,1.06,0,0,1-.316.048,1.268,1.268,0,0,1-.251-.02,1.57,1.57,0,0,1-.208-.06l.133-.405.078.028a.752.752,0,0,0,.168.033A.5.5,0,0,0,1142.63,199.324Zm-.2-.775a.365.365,0,0,0,.219-.156.255.255,0,0,0,.027-.242.354.354,0,0,0-.176-.2.373.373,0,0,0-.276-.023.324.324,0,0,0-.205.159.285.285,0,0,0-.013.244.344.344,0,0,0,.159.2A.311.311,0,0,0,1142.433,198.549Z" fill="#3a3a3a"/>
        <path id="Контур_59378" data-name="Контур 59378" d="M1144.471,196.824l.895-.315.835,2.057-.473.166-.678-1.666-.416.149Z" fill="#3a3a3a"/>
      </g>
      <path id="Контур_59379" data-name="Контур 59379" d="M1109.994,168.452h21.7a.676.676,0,1,0,0-1.349h-21.7a.676.676,0,1,0,0,1.349Zm13.02-12.146v.224a10.315,10.315,0,0,1,8.679,9.9h-21.7a10.315,10.315,0,0,1,8.679-9.9v-.224a.7.7,0,0,1,.724-.677h.722v-.267a.652.652,0,0,0-.408-.6c-.411-.189-.676-.471-.676-.79,0-.559.808-1.009,1.808-1.009s1.808.451,1.808,1.009c0,.32-.265.6-.676.79a.654.654,0,0,0-.411.6v.267h.724A.7.7,0,0,1,1123.015,156.306Z" fill="#3a3a3a" fill-rule="evenodd"/>
      <g id="Сгруппировать_370" data-name="Сгруппировать 370">
        <path id="Контур_59380" data-name="Контур 59380" d="M1078.291,184.193c-.359-.906-.684-1.14-1.749-1.14V186.9l.795.5v.488h-3.425V187.4l.792-.5v-9.855l-.668-.436v-.486h3.66c1.949,0,3.533.687,3.533,2.736v1.525a2.343,2.343,0,0,1-2.035,2.47,1.789,1.789,0,0,1,.973,1.108l.846,2.162c.181.456.505,1.11,1.081.992v.654a3.466,3.466,0,0,1-1.314.219c-1.135,0-1.246-.755-1.606-1.646Zm-1.768-7.033v4.919h1.154a1.476,1.476,0,0,0,1.676-1.7v-1.525c0-1.075-.414-1.7-1.657-1.7Z" fill="#3a3a3a"/>
        <path id="Контур_59381" data-name="Контур 59381" d="M1084.105,187.885V187.4l.814-.5v-9.9l-.687-.438v-.436h6.417v2.636h-.9l-.508-1.646h-2.449v4.415h1.73l.47-.924h.541v2.837h-.541l-.47-.889h-1.73v3.708a.463.463,0,0,1-.378.521v.083h3.062l.614-1.611h.795v2.636Z" fill="#3a3a3a"/>
        <path id="Контур_59382" data-name="Контур 59382" d="M1096.679,186.929a1.265,1.265,0,0,0,1.37-1.427v-1.427c0-2.2-4.557-1.307-4.557-4.247V178.4c0-1.762,1.387-2.417,2.844-2.417a2.672,2.672,0,0,1,2.057.755h.073l.143-.637h1.224v3.154h-1.854V178.4a1.188,1.188,0,0,0-1.335-1.291,1.161,1.161,0,0,0-1.278,1.291v1.427c0,2.031,4.6,1.125,4.6,4.232V185.5c0,1.863-1.657,2.568-3.371,2.568-1.73,0-3.225-.788-3.225-2.583v-.926h2.038v.941C1095.4,186.508,1095.871,186.929,1096.679,186.929Z" fill="#3a3a3a"/>
        <path id="Контур_59383" data-name="Контур 59383" d="M1106.894,177.177V186.8l.795.519v.571h-3.479v-.571l.792-.519v-9.619h-1.351l-.576,1.928h-.868l.073-2.986h7.336l.073,2.986h-.865l-.614-1.928Z" fill="#3a3a3a"/>
        <path id="Контур_59384" data-name="Контур 59384" d="M1112.278,187.062l.646.3v.521h-2.468v-.521l.649-.317c.9-3.476,1.911-7.537,2.83-11h1.857l2.9,10.943.649.37v.521h-3.208v-.436l.649-.37-.6-2.366h-3.314Zm.83-3.305h2.827l-1.406-5.659h-.016Z" fill="#3a3a3a"/>
        <path id="Контур_59385" data-name="Контур 59385" d="M1126.942,184.88v-7.8l-.684-.438v-.519h2.649v.519l-.687.438v7.839c0,2.25-1.476,3.121-3.352,3.139-1.873,0-3.387-.992-3.387-3.139v-7.806l-.795-.5v-.486h3.479v.486l-.795.5v7.806c0,1.392.668,1.946,1.77,1.946C1126.366,186.861,1126.942,186.289,1126.942,184.88Z" fill="#3a3a3a"/>
        <path id="Контур_59386" data-name="Контур 59386" d="M1135.659,184.193c-.359-.906-.684-1.14-1.749-1.14V186.9l.795.5v.488h-3.425V187.4l.792-.5v-9.855l-.665-.436v-.486h3.66c1.943,0,3.53.687,3.53,2.736v1.525a2.341,2.341,0,0,1-2.038,2.47,1.793,1.793,0,0,1,.976,1.108l.846,2.162c.181.456.505,1.11,1.084.992v.654a3.5,3.5,0,0,1-1.319.219c-1.135,0-1.243-.755-1.6-1.646Zm-1.765-7.033v4.919h1.154a1.477,1.477,0,0,0,1.676-1.7v-1.525c0-1.075-.413-1.7-1.657-1.7Z" fill="#3a3a3a"/>
        <path id="Контур_59387" data-name="Контур 59387" d="M1142.611,187.062l.649.3v.521h-2.47v-.521l.649-.317c.9-3.476,1.911-7.537,2.83-11h1.854l2.9,10.943.649.37v.521h-3.208v-.436l.651-.37-.595-2.366H1143.2Zm.827-3.305h2.83l-1.406-5.659h-.019Z" fill="#3a3a3a"/>
        <path id="Контур_59388" data-name="Контур 59388" d="M1154.282,187.364v.521h-2.811v-.521l.757-.435v-9.888l-.687-.436v-.486h2.127c.792,0,.938.065,1.135.7l1.768,5.236.808,3.29h.038c0-.856-.07-1.981-.07-2.837v-5.437l-.687-.438v-.519h2.649v.519l-.684.438v10.809h-1.552a.75.75,0,0,1-.773-.571l-2.938-9.4-.054.018.216,1.679v7.318Z" fill="#3a3a3a"/>
        <path id="Контур_59389" data-name="Контур 59389" d="M1166.119,177.177V186.8l.792.519v.571h-3.479v-.571l.795-.519v-9.619h-1.354l-.576,1.928h-.868l.076-2.986h7.336l.07,2.986h-.865l-.614-1.928Z" fill="#3a3a3a"/>
      </g>
    </g>
  </g>
</svg>
