<svg xmlns="http://www.w3.org/2000/svg" width="92.999" height="56.001" viewBox="0 0 92.999 56.001">
  <g id="Vector_Smart_Object" data-name="Vector Smart Object" transform="translate(-177.898 -261.442)">
    <g id="Сгруппировать_378" data-name="Сгруппировать 378">
      <path id="Контур_59390" data-name="Контур 59390" d="M242.372,315.13a.63.63,0,1,0,.636.63.636.636,0,0,0-.636-.63Zm-34.187,0a.63.63,0,1,0,.636.63A.632.632,0,0,0,208.186,315.13Z" fill="#70706f" fill-rule="evenodd"/>
      <path id="Контур_59391" data-name="Контур 59391" d="M224.068,262.476a6.019,6.019,0,0,0-2.076.852l-.836-.277a.458.458,0,0,0-.471.111l-.575.567a.448.448,0,0,0-.109.467l.279.831a5.878,5.878,0,0,0-.862,2.055l-.785.39a.446.446,0,0,0-.256.409v.8a.449.449,0,0,0,.256.409l.785.39a5.878,5.878,0,0,0,.862,2.055l-.279.828a.446.446,0,0,0,.109.467l.575.57a.458.458,0,0,0,.471.111l.836-.277a6.071,6.071,0,0,0,2.076.852l.394.781a.447.447,0,0,0,.41.253h.812a.447.447,0,0,0,.41-.253l.4-.781a6.057,6.057,0,0,0,2.073-.852l.836.277a.458.458,0,0,0,.471-.111l.575-.57a.441.441,0,0,0,.109-.467l-.277-.828a5.868,5.868,0,0,0,.857-2.055l.791-.39a.451.451,0,0,0,.253-.409v-.8a.448.448,0,0,0-.253-.409l-.791-.39a5.868,5.868,0,0,0-.857-2.055l.277-.828a.446.446,0,0,0-.109-.47l-.575-.567a.458.458,0,0,0-.471-.111l-.836.277a6.005,6.005,0,0,0-2.073-.852l-.4-.781a.447.447,0,0,0-.41-.253h-.812a.447.447,0,0,0-.41.253l-.394.781Zm4.772,2.92h0a4.52,4.52,0,0,1,1.014,2.429H227.06a1.742,1.742,0,0,0-.2-.47l1.978-1.96Zm-2.627,1.314h0a1.839,1.839,0,0,0-.476-.193v-2.772a4.571,4.571,0,0,1,2.451,1.008l-1.975,1.957Zm3.641,2.028a4.513,4.513,0,0,1-1.014,2.429l-1.978-1.96a1.742,1.742,0,0,0,.2-.47Zm-1.666,3.073a4.593,4.593,0,0,1-2.451,1.008v-2.772a1.837,1.837,0,0,0,.476-.193l1.975,1.957Zm-3.37,1.008a4.593,4.593,0,0,1-2.451-1.008l1.975-1.957a1.876,1.876,0,0,0,.476.193v2.772Zm-3.1-1.651a4.5,4.5,0,0,1-1.017-2.429H223.5a1.83,1.83,0,0,0,.2.47l-1.975,1.96Zm-1.017-3.342a4.5,4.5,0,0,1,1.017-2.429l1.975,1.96a1.83,1.83,0,0,0-.2.47Zm1.666-3.073a4.593,4.593,0,0,1,2.451-1.008v2.772a1.877,1.877,0,0,0-.476.193l-1.975-1.957Zm2.912,3.073a.456.456,0,1,1-.46.456A.456.456,0,0,1,225.279,267.826Z" fill="#3a3a3a" fill-rule="evenodd"/>
      <g id="Сгруппировать_372" data-name="Сгруппировать 372">
        <path id="Контур_59392" data-name="Контур 59392" d="M190.991,297.387c-1.435,0-3.048-.7-2.569-2.97l.854-4.044h-2.819c-2.241,5.141-4.229,7.014-6.4,7.014-1.259,0-2.164-1.2-2.164-3.421,0-1.445,1.006-1.87,2.14-1.87a2.074,2.074,0,0,1,1.259.425,6.71,6.71,0,0,0-.53,2.569v.224c1.988-.746,4.533-3.817,8.209-15.992h-.5c-2.292,0-3.122,1.271-3.122,2.443a2.3,2.3,0,0,0,.5,1.448,2.536,2.536,0,0,1-1.083.251,2.157,2.157,0,0,1-2.039-2.371c0-1.572,1.208-3.368,4.181-3.368,3.3,0,6.393,1.124,8.331.5a.725.725,0,0,1,.354.649.907.907,0,0,1-.881.973h-.1l-2.869,13.326c-.3,1.445.152,1.846.83,1.846a5.059,5.059,0,0,0,2.569-1.248.656.656,0,0,1,.426.6.869.869,0,0,1-.224.549C193.938,296.337,192.274,297.387,190.991,297.387Zm-.78-17.992c-1.134,3.917-2.167,7.037-3.149,9.533h2.521l2.012-9.382C191.14,279.492,190.69,279.442,190.211,279.395Z" fill="#3a3a3a"/>
        <path id="Контур_59393" data-name="Контур 59393" d="M196.251,287.479c.1-.4-.024-.622-.25-.622-.128,0-.279.1-.506.3a.905.905,0,0,1,0-1.372,4.593,4.593,0,0,1,2.821-1.2c.908,0,1.435.422,1.208,1.372l-1.536,7.088c-.226,1.021.1,1.472.854,1.472a3.1,3.1,0,0,0,2.318-1.3l1.509-7.064a2.009,2.009,0,0,1,2.116-1.569,2.2,2.2,0,0,1,1.184.324l-1.762,8.259c-.3,1.4.1,1.846.753,1.846a4.242,4.242,0,0,0,2.643-1.248.659.659,0,0,1,.429.6.859.859,0,0,1-.226.549c-1.182,1.324-3,2.472-4.357,2.472-1.232,0-2.465-.625-2.34-2.82-1.006,1.622-2.241,2.82-3.676,2.82-2.8,0-2.8-2.92-2.369-4.793Z" fill="#3a3a3a"/>
        <path id="Контур_59394" data-name="Контур 59394" d="M212.01,286.155l-1.485,7.014c-.3,1.4.1,1.846.756,1.846a4.242,4.242,0,0,0,2.643-1.248.655.655,0,0,1,.429.6.859.859,0,0,1-.226.549,7.132,7.132,0,0,1-4.786,2.472c-1.536,0-2.542-.95-1.962-3.693l1.61-7.539H207.73c-.125-.8.277-1.445,1.057-1.445h.506l.452-2.047a2.008,2.008,0,0,1,2.116-1.572,2.181,2.181,0,0,1,1.182.324l-.705,3.295h1.839c.128.8-.277,1.445-1.059,1.445Z" fill="#3a3a3a"/>
        <path id="Контур_59395" data-name="Контур 59395" d="M219.588,293.841l1.057-4.964c.178-.8.229-1.474-.6-1.474a3.129,3.129,0,0,0-2.342,1.324l-1.586,7.088A2.008,2.008,0,0,1,214,297.387a1.744,1.744,0,0,1-1.057-.251l3.2-14.871c.152-.675-.327-.826-.729-.351a.948.948,0,0,1-.378-.773c0-.575,1.813-1.773,3.173-1.773.9,0,1.411.425,1.211,1.374l-1.312,6.114c.958-1.351,2.065-2.271,3.348-2.271,1.262,0,3,.723,2.369,3.666l-1.235,5.74c-.152.723.176,1.023.681,1.023a4.248,4.248,0,0,0,2.643-1.248.659.659,0,0,1,.429.6.859.859,0,0,1-.226.549,6.645,6.645,0,0,1-4.559,2.472C220.3,297.387,218.96,296.761,219.588,293.841Z" fill="#3a3a3a"/>
        <path id="Контур_59396" data-name="Контур 59396" d="M228.83,293.369a2.133,2.133,0,0,0,2.342,1.846,7.482,7.482,0,0,0,5.212-2.7c.655-.124.9.4.628.849a9.183,9.183,0,0,1-7.1,4.017c-2.366,0-4.28-1.4-4.28-4.468,0-3.244,2.167-8.435,6.319-8.435,2.294,0,2.875,1.274,2.875,2.4C234.824,289,233.69,290.7,228.83,293.369Zm-.077-1.074c2.443-1.525,4.1-3.271,4.1-4.893,0-.572-.3-.971-.729-.971C229.633,286.432,228.83,290.547,228.752,292.3Z" fill="#3a3a3a"/>
        <path id="Контур_59397" data-name="Контур 59397" d="M236.708,285.783a4.6,4.6,0,0,1,2.819-1.2c.908,0,1.437.422,1.208,1.372l-.25,1.121a5.463,5.463,0,0,1,4.128-2.493c1.336,0,2.294,1.047,1.714,3.666l-1.235,5.74c-.152.723.176,1.023.681,1.023a4.249,4.249,0,0,0,2.643-1.248.659.659,0,0,1,.429.6.859.859,0,0,1-.226.549,6.645,6.645,0,0,1-4.559,2.472c-1.256,0-2.592-.625-1.964-3.545l1.057-4.964c.229-1.05-.122-1.474-.676-1.474a3.567,3.567,0,0,0-2.241,1.3l-1.536,7.114a2.009,2.009,0,0,1-2.116,1.572,2.214,2.214,0,0,1-1.184-.324l2.065-9.583c.1-.4-.027-.622-.253-.622-.125,0-.277.1-.5.3A.905.905,0,0,1,236.708,285.783Z" fill="#3a3a3a"/>
        <path id="Контур_59398" data-name="Контур 59398" d="M252.822,286.155l-1.485,7.014c-.277,1.271.048,1.82.554,1.82.452,0,1.03-.3,1.411-1.2.479,0,.753.251.753.675,0,1.746-2.063,2.92-3.473,2.92-1.259,0-3.021-.725-2.393-3.693l1.613-7.539h-1.259c-.128-.8.274-1.445,1.057-1.445h.5l.455-2.047a2.007,2.007,0,0,1,2.113-1.572,2.191,2.191,0,0,1,1.184.324l-.705,3.295h5.464c.9,0,1.408.425,1.208,1.372l-1.512,7.088c-.3,1.4.1,1.846.756,1.846a4.242,4.242,0,0,0,2.643-1.248.655.655,0,0,1,.429.6.859.859,0,0,1-.226.549,6.645,6.645,0,0,1-4.559,2.472c-1.256,0-2.718-.7-2.238-2.97l1.61-7.636c.1-.425-.125-.625-.527-.625Zm6.5-6.536a1.565,1.565,0,0,1,1.61,1.746,2.038,2.038,0,0,1-1.964,1.746,1.5,1.5,0,0,1-1.56-1.746A1.95,1.95,0,0,1,259.319,279.619Z" fill="#3a3a3a"/>
        <path id="Контур_59399" data-name="Контур 59399" d="M267.852,284.483c2.039,0,3.045.8,3.045,2.421,0,1.4-.83,2.047-1.762,2.047a1.552,1.552,0,0,1-1.006-.348,4.433,4.433,0,0,0,.4-1.622c0-.475-.3-.725-.932-.725-1.408,0-3.045,2.672-3.045,6.265,0,1.87.982,2.7,2.265,2.7a2.443,2.443,0,0,0,2.342-1.424c.479,0,.753.251.753.675,0,1.372-2.316,2.92-4.53,2.92-2.318,0-3.953-1.2-3.953-4.468C261.432,289.075,264.075,284.483,267.852,284.483Z" fill="#3a3a3a"/>
      </g>
      <g id="Сгруппировать_373" data-name="Сгруппировать 373">
        <path id="Контур_59400" data-name="Контур 59400" d="M212.285,317.4v-.116l.178-.119v-2.334l-.149-.1v-.1h1.419v.622h-.2l-.112-.388h-.546V315.9h.383l.1-.219h.12v.67h-.12l-.1-.214h-.383v.876c0,.063-.013.1-.083.121v.021h.679l.136-.38h.176v.622Z" fill="#3a3a3a"/>
        <path id="Контур_59401" data-name="Контур 59401" d="M216.586,317.169c.21,0,.3-.14.3-.335V316.5c0-.517-1.011-.309-1.011-1v-.338a.557.557,0,0,1,.633-.567.569.569,0,0,1,.455.177h.013l.032-.15h.271v.744h-.413v-.2a.27.27,0,0,0-.293-.3.265.265,0,0,0-.282.3v.338c0,.48,1.014.264,1.014,1v.34c0,.438-.365.6-.745.6s-.713-.187-.713-.609v-.216h.452v.222C216.3,317.072,216.408,317.169,216.586,317.169Z" fill="#3a3a3a"/>
        <path id="Контур_59402" data-name="Контур 59402" d="M220.365,314.872v2.266l.173.121v.137h-.769v-.137l.176-.121v-2.266h-.3l-.125.454h-.192l.016-.7h1.624l.016.7h-.192l-.136-.454Z" fill="#3a3a3a"/>
        <path id="Контур_59403" data-name="Контур 59403" d="M223.836,314.621c.476,0,.8.2.8.717v1.329a.7.7,0,0,1-.8.728h-.862v-.116l.176-.119v-2.305l-.152-.119v-.116Zm-.269.243V317a.1.1,0,0,1-.088.121l.005.024h.351c.3-.005.386-.214.386-.477v-1.329c0-.261-.09-.47-.386-.475Z" fill="#3a3a3a"/>
        <path id="Контур_59404" data-name="Контур 59404" d="M227.77,314.869l-.24-.076v-.166h.644v2.514l.173.124v.132h-.759v-.132l.181-.124Z" fill="#3a3a3a"/>
        <path id="Контур_59405" data-name="Контур 59405" d="M230.416,315.822v-.564c0-.435.319-.654.743-.654s.727.206.727.641v1.6c0,.4-.3.6-.708.6s-.719-.127-.719-.583v-.145h.4v.142c0,.245.122.332.311.332s.3-.124.3-.346v-.612A.617.617,0,0,1,230.416,315.822Zm1.057-.578c0-.256-.122-.38-.314-.38-.226,0-.327.174-.327.393v.564a.325.325,0,1,0,.641-.008Z" fill="#3a3a3a"/>
        <path id="Контур_59406" data-name="Контур 59406" d="M234.057,315.822v-.564a.653.653,0,0,1,.743-.654c.423,0,.727.206.727.641v1.6c0,.4-.3.6-.705.6s-.719-.127-.719-.583v-.145h.4v.142c.005.245.125.332.314.332s.3-.124.3-.346v-.612A.618.618,0,0,1,234.057,315.822Zm1.059-.578c0-.256-.125-.38-.317-.38-.226,0-.325.174-.325.393v.564a.325.325,0,1,0,.641-.008Z" fill="#3a3a3a"/>
        <path id="Контур_59407" data-name="Контур 59407" d="M237.866,314.869l-.242-.076v-.166h.644v2.514l.176.124v.132h-.759v-.132l.181-.124Z" fill="#3a3a3a"/>
      </g>
      <g id="Сгруппировать_374" data-name="Сгруппировать 374">
        <path id="Контур_59408" data-name="Контур 59408" d="M192.029,306.458a.578.578,0,0,1-.33.591l.314,1.174a.061.061,0,0,1-.067.082h-.468a.073.073,0,0,1-.077-.063l-.3-1.137h-.311v1.126a.068.068,0,0,1-.072.074h-.468a.068.068,0,0,1-.075-.074v-3.437a.068.068,0,0,1,.075-.074h1.131a.581.581,0,0,1,.652.646Zm-.793.055a.16.16,0,0,0,.178-.179v-.844a.161.161,0,0,0-.178-.179h-.45v1.2Z" fill="#70706f"/>
        <path id="Контур_59409" data-name="Контур 59409" d="M195.8,305.242c0,.042-.016.074-.072.074H194.6v.9h.862a.068.068,0,0,1,.075.077v.443a.066.066,0,0,1-.075.074H194.6v.9h1.131c.056,0,.072.024.072.071v.448c0,.045-.016.074-.072.074h-1.664a.066.066,0,0,1-.067-.074v-3.437a.066.066,0,0,1,.067-.074h1.664c.056,0,.072.029.072.074Z" fill="#70706f"/>
        <path id="Контур_59410" data-name="Контур 59410" d="M199.415,304.719a.066.066,0,0,1,.072.074v.448a.064.064,0,0,1-.072.069h-.524v2.92c0,.05-.024.074-.072.074h-.471a.065.065,0,0,1-.072-.074v-2.92h-.524a.065.065,0,0,1-.072-.069v-.448a.068.068,0,0,1,.072-.074Z" fill="#70706f"/>
        <path id="Контур_59411" data-name="Контур 59411" d="M203.222,306.458a.574.574,0,0,1-.33.591l.314,1.174c.013.053-.016.082-.067.082h-.468a.073.073,0,0,1-.077-.063l-.3-1.137h-.311v1.126a.068.068,0,0,1-.072.074h-.468a.07.07,0,0,1-.075-.074v-3.437a.07.07,0,0,1,.075-.074h1.131a.58.58,0,0,1,.652.646Zm-.793.055a.16.16,0,0,0,.178-.179v-.844a.161.161,0,0,0-.178-.179h-.45v1.2Z" fill="#70706f"/>
        <path id="Контур_59412" data-name="Контур 59412" d="M205.1,305.366a.581.581,0,0,1,.652-.646h.506a.58.58,0,0,1,.649.646v2.292a.58.58,0,0,1-.649.646h-.506a.581.581,0,0,1-.652-.646Zm1.043,2.361a.16.16,0,0,0,.181-.179v-2.071a.163.163,0,0,0-.181-.179h-.261a.163.163,0,0,0-.181.179v2.071a.16.16,0,0,0,.181.179Z" fill="#70706f"/>
        <path id="Контур_59413" data-name="Контур 59413" d="M211.707,308.3a.068.068,0,0,1-.072-.063l-.128-.654h-.8l-.122.654c-.011.04-.032.063-.072.063h-.484a.054.054,0,0,1-.059-.077l.751-3.445a.07.07,0,0,1,.075-.063h.631a.068.068,0,0,1,.075.063l.751,3.445c.011.047-.008.077-.061.077Zm-.6-2.8-.287,1.564h.578Z" fill="#70706f"/>
        <path id="Контур_59414" data-name="Контур 59414" d="M215.8,304.719a.092.092,0,0,1,.091.092v2.846a.58.58,0,0,1-.649.646h-.506a.581.581,0,0,1-.652-.646v-2.846a.092.092,0,0,1,.09-.092h.434a.093.093,0,0,1,.091.092v2.722a.156.156,0,0,0,.178.177h.237a.158.158,0,0,0,.181-.177v-2.722a.092.092,0,0,1,.09-.092Z" fill="#70706f"/>
        <path id="Контур_59415" data-name="Контур 59415" d="M219.5,304.719a.066.066,0,0,1,.072.074v.448a.064.064,0,0,1-.072.069h-.527v2.92c0,.05-.021.074-.072.074h-.468a.065.065,0,0,1-.072-.074v-2.92h-.524a.067.067,0,0,1-.075-.069v-.448a.07.07,0,0,1,.075-.074Z" fill="#70706f"/>
        <path id="Контур_59416" data-name="Контур 59416" d="M222.644,304.793a.07.07,0,0,1,.075-.074h.466a.066.066,0,0,1,.075.074v3.437a.066.066,0,0,1-.075.074h-.466a.07.07,0,0,1-.075-.074v-1.424h-.578v1.424a.068.068,0,0,1-.072.074h-.466a.068.068,0,0,1-.077-.074v-3.437a.068.068,0,0,1,.077-.074h.466a.068.068,0,0,1,.072.074v1.424h.578Z" fill="#70706f"/>
        <path id="Контур_59417" data-name="Контур 59417" d="M227.03,305.242c0,.042-.016.074-.072.074H225.83v.9h.862a.067.067,0,0,1,.072.077v.443a.065.065,0,0,1-.072.074h-.862v.9h1.129c.056,0,.072.024.072.071v.448c0,.045-.016.074-.072.074h-1.664a.066.066,0,0,1-.067-.074v-3.437a.066.066,0,0,1,.067-.074h1.664c.056,0,.072.029.072.074Z" fill="#70706f"/>
        <path id="Контур_59418" data-name="Контур 59418" d="M230.855,304.719a.068.068,0,0,1,.075.074v3.437a.068.068,0,0,1-.075.074h-.447a.077.077,0,0,1-.08-.061l-.692-1.91h-.021v1.9a.065.065,0,0,1-.072.074h-.471a.068.068,0,0,1-.072-.074v-3.437a.068.068,0,0,1,.072-.074h.447a.078.078,0,0,1,.083.061l.684,1.9h.029v-1.889a.066.066,0,0,1,.072-.074Z" fill="#70706f"/>
        <path id="Контур_59419" data-name="Контур 59419" d="M234.542,304.719a.065.065,0,0,1,.072.074v.448a.062.062,0,0,1-.072.069h-.524v2.92c0,.05-.021.074-.072.074h-.468a.067.067,0,0,1-.075-.074v-2.92h-.522a.065.065,0,0,1-.072-.069v-.448a.068.068,0,0,1,.072-.074Z" fill="#70706f"/>
        <path id="Контур_59420" data-name="Контур 59420" d="M237.036,304.719a.068.068,0,0,1,.072.074v3.437a.068.068,0,0,1-.072.074h-.471c-.051,0-.069-.029-.069-.074v-3.437c0-.045.019-.074.069-.074Z" fill="#70706f"/>
        <path id="Контур_59421" data-name="Контур 59421" d="M240.887,305.848a.067.067,0,0,1-.069.074h-.452a.067.067,0,0,1-.075-.074v-.359a.162.162,0,0,0-.181-.179h-.234a.161.161,0,0,0-.181.179v2.044a.158.158,0,0,0,.181.177h.234c.12,0,.181-.055.181-.177v-.359a.065.065,0,0,1,.075-.071h.452a.065.065,0,0,1,.069.071v.483a.581.581,0,0,1-.649.646h-.506a.583.583,0,0,1-.655-.646v-2.292a.583.583,0,0,1,.655-.646h.506a.581.581,0,0,1,.649.646Z" fill="#70706f"/>
        <path id="Контур_59422" data-name="Контур 59422" d="M245.146,304.719a.58.58,0,0,1,.649.646v.475a.065.065,0,0,1-.075.071h-.468a.066.066,0,0,1-.072-.071v-.351a.161.161,0,0,0-.181-.179h-.218a.166.166,0,0,0-.181.179v.62l1.078.348a.168.168,0,0,1,.117.166v1.034a.58.58,0,0,1-.649.646h-.508a.581.581,0,0,1-.649-.646v-.47a.063.063,0,0,1,.072-.071h.468c.051,0,.072.021.072.071v.346a.16.16,0,0,0,.181.177H245a.158.158,0,0,0,.181-.177v-.6l-1.073-.351a.157.157,0,0,1-.12-.164v-1.058a.581.581,0,0,1,.649-.646Z" fill="#70706f"/>
        <path id="Контур_59423" data-name="Контур 59423" d="M249.316,304.719a.066.066,0,0,1,.072.074v.448a.064.064,0,0,1-.072.069h-.524v2.92c0,.05-.021.074-.072.074h-.468a.066.066,0,0,1-.075-.074v-2.92h-.524a.063.063,0,0,1-.069-.069v-.448a.066.066,0,0,1,.069-.074Z" fill="#70706f"/>
        <path id="Контур_59424" data-name="Контур 59424" d="M253.29,304.719c.067,0,.1.042.072.105l-.825,1.991v1.4a.081.081,0,0,1-.09.09h-.434a.081.081,0,0,1-.09-.09v-1.4l-.828-1.991c-.027-.063.005-.105.072-.105h.452a.1.1,0,0,1,.1.074l.508,1.285.506-1.285a.1.1,0,0,1,.1-.074Z" fill="#70706f"/>
        <path id="Контур_59425" data-name="Контур 59425" d="M255.776,307.711h1.075a.064.064,0,0,1,.072.071v.448c0,.05-.021.074-.072.074h-1.618a.065.065,0,0,1-.072-.074v-3.437a.068.068,0,0,1,.072-.074h.468a.067.067,0,0,1,.075.074Z" fill="#70706f"/>
        <path id="Контур_59426" data-name="Контур 59426" d="M260.6,305.242a.065.065,0,0,1-.072.074H259.4v.9h.862a.068.068,0,0,1,.075.077v.443a.066.066,0,0,1-.075.074H259.4v.9h1.131c.053,0,.072.024.072.071v.448c0,.045-.019.074-.072.074h-1.664a.068.068,0,0,1-.069-.074v-3.437a.068.068,0,0,1,.069-.074h1.664c.053,0,.072.029.072.074Z" fill="#70706f"/>
      </g>
      <g id="Сгруппировать_377" data-name="Сгруппировать 377">
        <g id="Сгруппировать_375" data-name="Сгруппировать 375">
          <path id="Контур_59427" data-name="Контур 59427" d="M208.478,266.8h.591v3.479h-.591Z" fill="#70706f"/>
          <path id="Контур_59428" data-name="Контур 59428" d="M213.36,270.279l-.862-1.308h-.027l-.862,1.308h-.737l1.206-1.786-1.121-1.693h.732l.783,1.174h.027l.783-1.174h.735l-1.121,1.693,1.2,1.786Z" fill="#70706f"/>
        </g>
        <g id="Сгруппировать_376" data-name="Сгруппировать 376">
          <path id="Контур_59429" data-name="Контур 59429" d="M239.434,270.279l-.862-1.308h-.027l-.862,1.308h-.74l1.208-1.786L237.03,266.8h.732l.783,1.174h.027l.783-1.174h.735l-1.121,1.693,1.2,1.786Z" fill="#70706f"/>
          <path id="Контур_59430" data-name="Контур 59430" d="M241.973,266.8h.594v3.479h-.594Z" fill="#70706f"/>
        </g>
      </g>
    </g>
  </g>
</svg>
