<svg xmlns="http://www.w3.org/2000/svg" width="70" height="70" viewBox="0 0 70 70">
  <g id="icon" transform="translate(-1075 -939)">
    <g id="Ellipse_3" data-name="Ellipse 3" transform="translate(1075 939)" fill="none" stroke="#7492ec" stroke-width="2">
      <circle cx="35" cy="35" r="35" stroke="none"/>
      <circle cx="35" cy="35" r="34" fill="none"/>
    </g>
    <g id="_017-yoga" data-name="017-yoga">
      <g id="_017-yoga-2" data-name="017-yoga" transform="translate(1098 955)">
        <path id="Shape_1" data-name="Shape 1" d="M2.8,38.078A3.364,3.364,0,0,1,.587,36.539,3.586,3.586,0,0,1,.143,33.83l0-.009a3.411,3.411,0,0,1,3.969-2.6q1.757.348,3.519.542l-.6-11.088A9.192,9.192,0,0,1,4.631,20a6.008,6.008,0,0,1-3.689-5.78c0-4,3.426-6.748,6.449-9.172a17.436,17.436,0,0,0,3.7-3.527L12.036,0l.941,1.516a17.431,17.431,0,0,0,3.7,3.527c3.023,2.424,6.449,5.172,6.449,9.173A6.008,6.008,0,0,1,19.441,20a9.2,9.2,0,0,1-2.406.681l-.6,11.1q1.774-.194,3.535-.546a3.4,3.4,0,0,1,3.952,2.59,3.588,3.588,0,0,1-.434,2.722,3.361,3.361,0,0,1-2.209,1.545,46.929,46.929,0,0,1-9.2.917A47.722,47.722,0,0,1,2.8,38.078Zm-.485-3.719v0a1.227,1.227,0,0,0,.153.942,1.153,1.153,0,0,0,.758.529,45.541,45.541,0,0,0,8.854.88,44.746,44.746,0,0,0,8.776-.875,1.151,1.151,0,0,0,.756-.53,1.228,1.228,0,0,0,.151-.944,1.173,1.173,0,0,0-1.36-.9,42.551,42.551,0,0,1-16.708,0,1.178,1.178,0,0,0-1.378.893Zm7.564-2.41a40.217,40.217,0,0,0,4.316,0l.6-11.186H9.276ZM8.766,6.843c-2.75,2.205-5.593,4.485-5.593,7.373A3.7,3.7,0,0,0,5.524,17.9a7.245,7.245,0,0,0,2.574.581h7.873a7.224,7.224,0,0,0,2.63-.6,3.694,3.694,0,0,0,2.3-3.662c0-2.887-2.844-5.168-5.593-7.373a29.608,29.608,0,0,1-3.27-2.882A29.6,29.6,0,0,1,8.766,6.843ZM7.411,13.016a4.688,4.688,0,0,1,4.625-4.739,4.741,4.741,0,0,1,0,9.478A4.689,4.689,0,0,1,7.411,13.016Zm2.23,0a2.4,2.4,0,1,0,2.395-2.454A2.428,2.428,0,0,0,9.641,13.016Z"/>
      </g>
      <path id="Color_Overlay" data-name="Color Overlay" d="M1100.8,993.078a3.361,3.361,0,0,1-2.21-1.539,3.584,3.584,0,0,1-.445-2.709l0-.009a3.41,3.41,0,0,1,3.969-2.6q1.758.348,3.519.542l-.6-11.088a9.183,9.183,0,0,1-2.407-.681,6.007,6.007,0,0,1-3.688-5.78c0-4,3.426-6.748,6.448-9.173a17.43,17.43,0,0,0,3.7-3.527l.941-1.516.941,1.516a17.4,17.4,0,0,0,3.7,3.527c3.022,2.425,6.448,5.171,6.448,9.173a6.007,6.007,0,0,1-3.688,5.78,9.181,9.181,0,0,1-2.407.681l-.6,11.1q1.774-.193,3.534-.546a3.4,3.4,0,0,1,3.953,2.59,3.586,3.586,0,0,1-.435,2.723,3.359,3.359,0,0,1-2.209,1.544,46.877,46.877,0,0,1-9.2.917A47.691,47.691,0,0,1,1100.8,993.078Zm-.485-3.719v.005a1.226,1.226,0,0,0,.153.941,1.151,1.151,0,0,0,.758.528,45.517,45.517,0,0,0,8.854.88,44.731,44.731,0,0,0,8.776-.875,1.148,1.148,0,0,0,.756-.53,1.224,1.224,0,0,0,.15-.944,1.172,1.172,0,0,0-1.359-.9,42.532,42.532,0,0,1-16.708,0,1.179,1.179,0,0,0-1.379.893Zm7.565-2.41a39.933,39.933,0,0,0,4.316,0l.6-11.186h-5.52Zm-1.112-25.106c-2.75,2.2-5.594,4.486-5.594,7.373a3.7,3.7,0,0,0,2.352,3.686,7.255,7.255,0,0,0,2.573.581h7.873a7.218,7.218,0,0,0,2.63-.6,3.7,3.7,0,0,0,2.3-3.662c0-2.887-2.843-5.168-5.594-7.373a29.752,29.752,0,0,1-3.27-2.882A29.6,29.6,0,0,1,1106.766,961.843Zm-1.355,6.173a4.626,4.626,0,1,1,4.625,4.739A4.689,4.689,0,0,1,1105.411,968.016Zm2.23,0a2.4,2.4,0,1,0,2.395-2.453A2.428,2.428,0,0,0,1107.641,968.016Z" fill="#7492ec"/>
    </g>
  </g>
</svg>
