<svg xmlns="http://www.w3.org/2000/svg" width="70" height="70" viewBox="0 0 70 70">
  <g id="icon" transform="translate(-1075 -1071)">
    <g id="Ellipse_3" data-name="Ellipse 3" transform="translate(1075 1071)" fill="none" stroke="#7492ec" stroke-width="2">
      <circle cx="35" cy="35" r="35" stroke="none"/>
      <circle cx="35" cy="35" r="34" fill="none"/>
    </g>
    <g id="_022-liposuction" data-name="022-liposuction">
      <g id="_022-liposuction-2" data-name="022-liposuction" transform="translate(1092 1088)">
        <path id="Shape_1" data-name="Shape 1" d="M4.051,28.308a21.312,21.312,0,0,1,2.872-9.176,14.312,14.312,0,0,0,2.361-8.512A22.633,22.633,0,0,0,7.618,3.538,6.748,6.748,0,0,1,6.621,0H8.848a4.533,4.533,0,0,0,4.519,4.536A4.533,4.533,0,0,0,17.887,0h2.227a4.533,4.533,0,0,0,4.519,4.536A4.533,4.533,0,0,0,29.152,0h2.227a6.748,6.748,0,0,1-1,3.538,22.634,22.634,0,0,0-1.667,7.082,14.312,14.312,0,0,0,2.361,8.512,21.313,21.313,0,0,1,2.872,9.176A40.914,40.914,0,0,1,34,36l-2.218-.191a39.69,39.69,0,0,0,.036-6.315,39.247,39.247,0,0,0-10.26,2.737,6.4,6.4,0,0,1-1.444.429V35.9H17.887V32.659a6.4,6.4,0,0,1-1.444-.429,39.25,39.25,0,0,0-10.26-2.737,39.69,39.69,0,0,0,.036,6.315L4,36A40.92,40.92,0,0,1,4.051,28.308Zm2.384-1.035a41.254,41.254,0,0,1,10.889,2.9,4.234,4.234,0,0,0,3.351,0,41.259,41.259,0,0,1,10.889-2.9,21.633,21.633,0,0,0-1.128-4.439A14.275,14.275,0,0,1,25.911,24.7,29.564,29.564,0,0,1,19,25.54a29.564,29.564,0,0,1-6.911-.841,14.279,14.279,0,0,1-4.525-1.865A21.637,21.637,0,0,0,6.436,27.273Zm5.074-16.746A16.7,16.7,0,0,1,8.8,20.334q-.139.219-.27.446c2.117,1.644,6.785,2.526,10.469,2.526s8.352-.881,10.469-2.526q-.13-.226-.27-.446a16.7,16.7,0,0,1-2.708-9.807,20.3,20.3,0,0,1,.655-4.244,6.688,6.688,0,0,1-2.513.488A6.739,6.739,0,0,1,19,3.721a6.739,6.739,0,0,1-5.633,3.049,6.688,6.688,0,0,1-2.513-.488A20.313,20.313,0,0,1,11.509,10.527Zm6.637,7.425a.854.854,0,1,1,.853.856A.855.855,0,0,1,18.147,17.952Zm11.384-6.024,3.831-3.845,1.574,1.58-1.143,1.148H38v2.235H33.793l1.143,1.148-1.574,1.58ZM3.064,14.193l1.143-1.148H0V10.811H4.207L3.064,9.663l1.574-1.58,3.831,3.845L4.638,15.773Z"/>
      </g>
      <path id="Color_Overlay" data-name="Color Overlay" d="M1123.781,1123.808a39.723,39.723,0,0,0,.036-6.315,39.241,39.241,0,0,0-10.261,2.737,6.409,6.409,0,0,1-1.444.429v3.245h-2.227v-3.245a6.407,6.407,0,0,1-1.444-.429,39.235,39.235,0,0,0-10.26-2.737,39.635,39.635,0,0,0,.036,6.315L1096,1124a40.856,40.856,0,0,1,.051-7.691,21.311,21.311,0,0,1,2.872-9.176,14.312,14.312,0,0,0,2.362-8.511,22.657,22.657,0,0,0-1.667-7.083,6.745,6.745,0,0,1-1-3.538h2.227a4.519,4.519,0,1,0,9.039,0h2.227a4.52,4.52,0,1,0,9.04,0h2.227a6.746,6.746,0,0,1-1,3.538,22.657,22.657,0,0,0-1.667,7.083,14.313,14.313,0,0,0,2.362,8.511,21.324,21.324,0,0,1,2.872,9.176A40.929,40.929,0,0,1,1126,1124Zm-25.346-8.536a41.258,41.258,0,0,1,10.889,2.905,4.233,4.233,0,0,0,3.351,0,41.259,41.259,0,0,1,10.889-2.905,21.663,21.663,0,0,0-1.129-4.439,14.263,14.263,0,0,1-4.524,1.865,28.807,28.807,0,0,1-13.823,0,14.3,14.3,0,0,1-4.525-1.865A21.653,21.653,0,0,0,1098.436,1115.273Zm5.073-16.746a16.7,16.7,0,0,1-2.708,9.807c-.093.146-.183.3-.27.445,2.117,1.644,6.785,2.525,10.469,2.525s8.352-.88,10.469-2.525c-.086-.15-.176-.3-.269-.445a16.7,16.7,0,0,1-2.709-9.807,20.338,20.338,0,0,1,.656-4.243,6.726,6.726,0,0,1-8.147-2.561,6.725,6.725,0,0,1-8.146,2.561A20.3,20.3,0,0,1,1103.509,1098.526Zm6.638,7.426a.854.854,0,1,1,.853.856A.855.855,0,0,1,1110.146,1105.952Zm11.384-6.025,3.831-3.845,1.574,1.579-1.143,1.148H1130v2.234h-4.208l1.143,1.148-1.574,1.579Zm-26.466,2.265,1.143-1.148H1092v-2.234h4.208l-1.143-1.148,1.574-1.579,3.831,3.845-3.831,3.845Z" fill="#7492ec"/>
    </g>
  </g>
</svg>
