<svg xmlns="http://www.w3.org/2000/svg" width="70" height="70" viewBox="0 0 70 70">
  <g id="icon" transform="translate(-1075 -1203)">
    <g id="Ellipse_3" data-name="Ellipse 3" transform="translate(1075 1203)" fill="none" stroke="#7492ec" stroke-width="2">
      <circle cx="35" cy="35" r="35" stroke="none"/>
      <circle cx="35" cy="35" r="34" fill="none"/>
    </g>
    <g id="om-1">
      <g id="om-1-2" data-name="om-1" transform="translate(1098 1219)">
        <path id="Shape_1" data-name="Shape 1" d="M21.5,6.211A3.538,3.538,0,0,0,18,9.779v5.54a3.418,3.418,0,0,0-2.225,0V3.569A3.5,3.5,0,0,0,8.79,3.357,3.419,3.419,0,0,0,7.67,3.169a3.538,3.538,0,0,0-3.5,3.569V16.1H3.449A3.412,3.412,0,0,0,.683,17.509a3.56,3.56,0,0,0-.562,3.1l2.53,8.977a11.546,11.546,0,0,0,4.1,6.075A11.165,11.165,0,0,0,13.6,38,11.526,11.526,0,0,0,25,26.374V9.779A3.538,3.538,0,0,0,21.5,6.211ZM16.891,17.567A1.125,1.125,0,0,1,18,18.7v3.935a1.113,1.113,0,1,1-2.225,0V18.7A1.125,1.125,0,0,1,16.891,17.567Zm-5.723-14a1.113,1.113,0,1,1,2.225,0V16.287a3.419,3.419,0,0,0-1.113-.186H11.168ZM6.558,6.737a1.113,1.113,0,1,1,2.225,0V16.1H6.558ZM22.614,26.374A9.113,9.113,0,0,1,13.6,35.566a8.828,8.828,0,0,1-5.42-1.849,9.128,9.128,0,0,1-3.24-4.8l-2.53-8.977a1.107,1.107,0,0,1,.175-.965,1.061,1.061,0,0,1,.861-.438h8.832a1.135,1.135,0,0,1,0,2.27H6.4a1.217,1.217,0,0,0,0,2.434H8.252a9.174,9.174,0,0,1,1.234,4.117,1.2,1.2,0,0,0,1.19,1.148l.068,0a1.208,1.208,0,0,0,1.124-1.283,11.665,11.665,0,0,0-.938-3.98h1.352a3.418,3.418,0,0,0,1.136-.194,3.495,3.495,0,0,0,6.973-.407V9.779a1.113,1.113,0,1,1,2.225,0V26.374Z"/>
      </g>
      <path id="Color_Overlay" data-name="Color Overlay" d="M1104.748,1254.661a11.542,11.542,0,0,1-4.1-6.075l-2.531-8.977a3.562,3.562,0,0,1,.562-3.1,3.413,3.413,0,0,1,2.767-1.409h.724v-9.364a3.538,3.538,0,0,1,3.5-3.568,3.423,3.423,0,0,1,1.119.189,3.5,3.5,0,0,1,6.989.211v11.75a3.415,3.415,0,0,1,2.225,0v-5.54a3.5,3.5,0,1,1,7,0v16.6A11.527,11.527,0,0,1,1111.6,1257,11.165,11.165,0,0,1,1104.748,1254.661Zm-4.16-16.689a1.108,1.108,0,0,0-.175.965l2.53,8.977a9.125,9.125,0,0,0,3.24,4.8,8.826,8.826,0,0,0,5.42,1.849,9.113,9.113,0,0,0,9.011-9.193v-16.6a1.113,1.113,0,1,0-2.225,0v12.858a3.494,3.494,0,0,1-6.972.407,3.428,3.428,0,0,1-1.136.194h-1.353a11.652,11.652,0,0,1,.939,3.98,1.208,1.208,0,0,1-1.124,1.283c-.022,0-.045,0-.068,0a1.2,1.2,0,0,1-1.19-1.147,9.171,9.171,0,0,0-1.233-4.118H1104.4a1.217,1.217,0,0,1,0-2.434h5.883a1.136,1.136,0,0,0,0-2.271h-8.832A1.062,1.062,0,0,0,1100.588,1237.973Zm13.19-.271v3.936a1.113,1.113,0,1,0,2.225,0V1237.7a1.113,1.113,0,1,0-2.225,0Zm-4.611-15.133V1235.1h1.112a3.43,3.43,0,0,1,1.113.186v-12.718a1.113,1.113,0,1,0-2.226,0Zm-4.611,3.168v9.364h2.226v-9.364a1.113,1.113,0,1,0-2.226,0Z" fill="#7492ec"/>
    </g>
  </g>
</svg>
