<svg xmlns="http://www.w3.org/2000/svg" width="70" height="70" viewBox="0 0 70 70">
  <g id="icon" transform="translate(-1075 -1335)">
    <g id="Ellipse_3" data-name="Ellipse 3" transform="translate(1075 1335)" fill="none" stroke="#7492ec" stroke-width="2">
      <circle cx="35" cy="35" r="35" stroke="none"/>
      <circle cx="35" cy="35" r="34" fill="none"/>
    </g>
    <g id="dove">
      <g id="dove-2" data-name="dove" transform="translate(1093 1353)">
        <path id="Shape_1" data-name="Shape 1" d="M13.067,33.777A17.725,17.725,0,0,1,6.542,31.16a18.368,18.368,0,0,1-5.212-5.05L0,23.987l2.485.514a34.481,34.481,0,0,0,9.582.842,11.916,11.916,0,0,1-3.458-4.555,20.5,20.5,0,0,1-1.636-5.882,11.144,11.144,0,0,1-1.6-3.626,12.717,12.717,0,0,1-.088-5.619L5.65,4.2l1.284.814a31.941,31.941,0,0,0,6.471,2.938,27.537,27.537,0,0,1,2.912-6.247L17.411.067l.816,1.792A11.655,11.655,0,0,0,22.4,6.6a11.407,11.407,0,0,1,4.548,5.558,4.271,4.271,0,0,1,1.765-.381c2.981,0,4.094,1.983,4.906,3.431.2.364.4.707.6,1.007L35,17.332l-1.287.483c-.965.362-1.589,2.277-2.25,4.305-1.279,3.926-3.032,9.3-9.308,11.094a21.28,21.28,0,0,1-5.842.853A18.054,18.054,0,0,1,13.067,33.777ZM7.823,29.423a15.517,15.517,0,0,0,5.7,2.258,17.748,17.748,0,0,0,8.026-.524,9.223,9.223,0,0,0,5.35-3.917,23.408,23.408,0,0,0,2.488-5.773c.678-2.081,1.283-3.939,2.46-4.99l-.134-.239c-.832-1.483-1.381-2.322-2.994-2.322-1.864,0-3.1,2.565-3.462,3.431a11.879,11.879,0,0,1-1.315,5.267c-.131.317-.266.644-.4.979l-2.031-.783c.138-.346.276-.68.41-1,1.251-3.026,1.941-4.693-.253-7.445-1.394-1.749-4.385-2.787-7.552-3.886a48.379,48.379,0,0,1-6.9-2.812,10.821,10.821,0,0,0,.3,3.192c.828,3.268,3.177,5.6,6.981,6.92L13.764,19.8A15.366,15.366,0,0,1,9.8,17.787a16.29,16.29,0,0,0,.816,2.167c1.583,3.408,4,5.136,7.172,5.136v2.142a9.96,9.96,0,0,1-2.488-.305c-1.04.339-4.24,1.093-10.324.195A17.247,17.247,0,0,0,7.823,29.423ZM15.464,8.676c3.239,1.13,6.24,2.263,7.918,4.368a10.744,10.744,0,0,1,.973,1.429,8.662,8.662,0,0,1,.749-.941c-.77-2.759-2.292-3.916-4.037-5.243A15.51,15.51,0,0,1,17.216,4.5,26.682,26.682,0,0,0,15.464,8.676Zm12.963,7.543a.727.727,0,1,1,.727.714A.721.721,0,0,1,28.427,16.219Z"/>
      </g>
      <path id="Color_Overlay" data-name="Color Overlay" d="M1106.067,1386.777a17.706,17.706,0,0,1-6.525-2.617,18.362,18.362,0,0,1-5.211-5.049l-1.331-2.124,2.485.515a34.5,34.5,0,0,0,9.582.841,11.914,11.914,0,0,1-3.458-4.555,20.483,20.483,0,0,1-1.635-5.881,11.143,11.143,0,0,1-1.6-3.626,12.716,12.716,0,0,1-.087-5.619l.367-1.457,1.284.814a31.9,31.9,0,0,0,6.471,2.938,27.532,27.532,0,0,1,2.912-6.247l1.094-1.643.816,1.792a11.648,11.648,0,0,0,4.176,4.738,11.411,11.411,0,0,1,4.549,5.558,4.256,4.256,0,0,1,1.764-.381c2.982,0,4.094,1.983,4.906,3.431.2.364.4.707.6,1.007l.773,1.12-1.287.482c-.965.363-1.589,2.278-2.25,4.306-1.279,3.926-3.031,9.3-9.308,11.094a21.294,21.294,0,0,1-5.842.853A18.042,18.042,0,0,1,1106.067,1386.777Zm-5.244-4.354a15.517,15.517,0,0,0,5.7,2.258,17.735,17.735,0,0,0,8.025-.524,9.218,9.218,0,0,0,5.35-3.917,23.4,23.4,0,0,0,2.489-5.773c.678-2.082,1.283-3.939,2.46-4.99l-.134-.239c-.832-1.483-1.381-2.322-2.994-2.322-1.864,0-3.1,2.565-3.462,3.431a11.877,11.877,0,0,1-1.315,5.267c-.131.317-.266.644-.4.979l-2.031-.782c.139-.347.276-.68.409-1,1.251-3.026,1.94-4.694-.253-7.445-1.4-1.749-4.386-2.786-7.552-3.885a48.433,48.433,0,0,1-6.9-2.812,10.83,10.83,0,0,0,.3,3.192c.828,3.268,3.176,5.6,6.981,6.92l-.729,2.019a15.32,15.32,0,0,1-3.96-2.012,16.226,16.226,0,0,0,.815,2.167c1.583,3.408,4,5.136,7.172,5.136v2.142a9.986,9.986,0,0,1-2.488-.305c-1.04.338-4.24,1.093-10.325.194A17.215,17.215,0,0,0,1100.822,1382.422Zm7.641-20.747c3.24,1.13,6.24,2.263,7.918,4.369a10.659,10.659,0,0,1,.973,1.428,8.718,8.718,0,0,1,.75-.941c-.77-2.758-2.292-3.916-4.037-5.242a15.5,15.5,0,0,1-3.851-3.789A26.693,26.693,0,0,0,1108.463,1361.676Zm12.963,7.543a.728.728,0,1,1,.728.715A.721.721,0,0,1,1121.426,1369.219Z" fill="#7492ec"/>
    </g>
  </g>
</svg>
