<svg xmlns="http://www.w3.org/2000/svg" width="70" height="70" viewBox="0 0 70 70">
  <g id="icon" transform="translate(-1075 -1467)">
    <g id="Ellipse_3" data-name="Ellipse 3" transform="translate(1075 1467)" fill="none" stroke="#7492ec" stroke-width="2">
      <circle cx="35" cy="35" r="35" stroke="none"/>
      <circle cx="35" cy="35" r="34" fill="none"/>
    </g>
    <g id="energy">
      <g id="energy-2" data-name="energy" transform="translate(1094 1486)">
        <path id="Forma_1" data-name="Forma 1" d="M12.4,32.49A16.8,16.8,0,0,1,5.94,29.147c-.023-.015-.431-.372-.613-.539s-.569-.527-.569-.527a16.362,16.362,0,0,1-2.9-3.975.688.688,0,0,1,.015-.661.7.7,0,0,1,.06-.088.691.691,0,0,1,.717-.232l5.7,1.545a.688.688,0,0,1,.418,1l-.876,1.534a14.04,14.04,0,0,0,5,2.564,14.159,14.159,0,0,0,12.53-2.778l.241-.193a.69.69,0,0,1,.969.107l.861,1.074a.687.687,0,0,1-.108.967l-.231.184A17.4,17.4,0,0,1,16.378,33,15.653,15.653,0,0,1,12.4,32.49Zm1.853-3.647a.688.688,0,0,1-.481-.656V19.247H8.956a.687.687,0,0,1-.563-1.082L18.024,4.413a.687.687,0,0,1,1.251.394v8.939H24.09a.687.687,0,0,1,.563,1.082L15.022,28.581a.688.688,0,0,1-.77.262ZM29.766,25.66a.689.689,0,0,1-.56-.5l-1.511-5.7a.689.689,0,0,1,.662-.864l1.769-.01a13.976,13.976,0,0,0-.277-5.607,14.121,14.121,0,0,0-8.675-9.441l-.288-.112a.687.687,0,0,1-.391-.891L21,1.248a.69.69,0,0,1,.893-.39l.276.108a16.886,16.886,0,0,1,10.29,11.079,16.728,16.728,0,0,1,.329,7.255c0,.027-.108.559-.162.8s-.173.755-.173.755a16.341,16.341,0,0,1-2,4.5.69.69,0,0,1-.581.318A.711.711,0,0,1,29.766,25.66Zm-29.5-6-.044-.292A16.851,16.851,0,0,1,4.686,4.932a16.8,16.8,0,0,1,6.13-3.912c.024-.012.539-.186.774-.26s.742-.228.742-.228a16.416,16.416,0,0,1,4.9-.523A.69.69,0,0,1,17.8.353a.717.717,0,0,1,.046.1.688.688,0,0,1-.157.736L13.5,5.341a.691.691,0,0,1-1.081-.14l-.893-1.524A14.034,14.034,0,0,0,6.8,6.72,14.093,14.093,0,0,0,2.941,18.938l.047.305a.688.688,0,0,1-.578.784l-1.362.207a.689.689,0,0,1-.785-.577Z"/>
      </g>
      <path id="Color_Overlay" data-name="Color Overlay" d="M1106.4,1518.49a16.8,16.8,0,0,1-6.459-3.344c-.022-.014-.431-.372-.612-.539s-.569-.526-.569-.526a16.364,16.364,0,0,1-2.905-3.975.686.686,0,0,1,.015-.661.76.76,0,0,1,.06-.088.689.689,0,0,1,.716-.231l5.7,1.544a.689.689,0,0,1,.418,1l-.876,1.534a13.741,13.741,0,0,0,17.533-.213l.242-.193a.689.689,0,0,1,.969.108l.86,1.074a.687.687,0,0,1-.107.967l-.231.185a17.407,17.407,0,0,1-10.78,3.865A15.655,15.655,0,0,1,1106.4,1518.49Zm1.852-3.648a.687.687,0,0,1-.481-.656v-8.939h-4.816a.687.687,0,0,1-.562-1.082l9.631-13.753a.687.687,0,0,1,1.251.394v8.94h4.816a.687.687,0,0,1,.563,1.082l-9.631,13.752a.684.684,0,0,1-.563.293A.692.692,0,0,1,1108.252,1514.842Zm15.513-3.182a.689.689,0,0,1-.56-.5l-1.511-5.7a.689.689,0,0,1,.662-.864l1.769-.01a13.692,13.692,0,0,0-8.952-15.048l-.288-.113a.687.687,0,0,1-.391-.891l.5-1.281a.689.689,0,0,1,.893-.391l.275.107a16.38,16.38,0,0,1,10.619,18.334c0,.027-.108.559-.161.8s-.174.754-.174.754a16.343,16.343,0,0,1-2,4.5.69.69,0,0,1-.581.318A.71.71,0,0,1,1123.765,1511.66Zm-29.5-6-.044-.292a16.39,16.39,0,0,1,10.6-18.345c.023-.012.538-.186.774-.26l.742-.228a16.393,16.393,0,0,1,4.9-.523.69.69,0,0,1,.566.343.77.77,0,0,1,.046.1.686.686,0,0,1-.157.735l-4.192,4.157a.691.691,0,0,1-1.08-.14l-.894-1.524a13.7,13.7,0,0,0-8.582,15.261l.047.305a.688.688,0,0,1-.578.784l-1.362.206a.7.7,0,0,1-.105.008A.689.689,0,0,1,1094.262,1505.658Z" fill="#7492ec"/>
    </g>
  </g>
</svg>
