<svg width="35" height="35" viewBox="0 0 35 35" fill="none" xmlns="http://www.w3.org/2000/svg">
<path fill-rule="evenodd" clip-rule="evenodd" d="M0.585801 30.1716L6 24.7574L13.2574 17.5L6 10.2426L0.585802 4.82844C0.195278 4.43792 0.195277 3.80475 0.585801 3.41423L3.41423 0.585802C3.80475 0.195278 4.43792 0.195277 4.82844 0.585802L10.2426 6L17.5 13.2574L24.7574 6L30.1716 0.585802C30.5621 0.195277 31.1953 0.195276 31.5858 0.5858L34.4142 3.41423C34.8048 3.80475 34.8048 4.43792 34.4142 4.82844L30 9.24267L21.7427 17.5L30 25.7574L34.4142 30.1716C34.8047 30.5621 34.8048 31.1953 34.4142 31.5858L31.5858 34.4142C31.1953 34.8048 30.5621 34.8048 30.1716 34.4142L25.7574 30L17.5 21.7427L9.24267 30L4.82844 34.4142C4.43792 34.8047 3.80475 34.8047 3.41423 34.4142L0.585801 31.5858C0.195277 31.1953 0.195277 30.5621 0.585801 30.1716Z" fill="#8C1C7A" fill-opacity="0.68"/>
</svg>
