<svg width="56" height="48" viewBox="0 0 56 48" fill="none" xmlns="http://www.w3.org/2000/svg">
<path fill-rule="evenodd" clip-rule="evenodd" d="M0 6C0 7.10457 0.89543 8 2 8H54C55.1046 8 56 7.10457 56 6V2C56 0.895431 55.1046 0 54 0H2C0.895431 0 0 0.895431 0 2V6ZM56 26C56 27.1046 55.1046 28 54 28H2C0.895431 28 0 27.1046 0 26V22C0 20.8954 0.89543 20 2 20H54C55.1046 20 56 20.8954 56 22V26ZM56 46C56 47.1046 55.1046 48 54 48H2C0.895431 48 0 47.1046 0 46V42C0 40.8954 0.89543 40 2 40H54C55.1046 40 56 40.8954 56 42V46Z" fill="#7492EC" fill-opacity="0.7"/>
</svg>
